<svg width="0" height="0" viewBox="0 0 190 160" fill="none" xmlns="http://www.w3.org/2000/svg">
<rect y="1.69543" width="190" height="158.115" class="caution__rectangle"/>
<path d="M16.7801 1.12152L2.67623 1.12152V6.56051L16.7801 1.12152Z M26.7607 4.12797L2.67623 13.4158V21.1557L26.7607 11.8679V4.12797Z M26.7607 18.7232L2.67623 28.0111V35.751L26.7607 26.4631V18.7232Z M26.7607 33.3184L2.67623 42.6063V50.3462L26.7607 41.0583V33.3184Z M26.7607 47.9137L2.67623 57.2015V64.9414L26.7607 55.6536V47.9137Z M26.7607 62.5089L2.67623 71.7968V79.5367L26.7607 70.2488V62.5089Z M26.7607 62.5089L2.67623 71.7968V79.5367L26.7607 70.2488V62.5089Z M26.7607 77.1041L2.67623 86.392V94.1319L26.7607 84.844V77.1041Z M26.7607 91.6994L2.67623 100.987V108.727L26.7607 99.4393V91.6994Z M26.7607 106.295L2.67623 115.582V123.322L26.7607 114.035V106.295Z M26.7607 120.89L2.67623 130.178V137.918L26.7607 128.63V120.89Z M26.7607 135.485L2.67623 144.773V152.513L14.7185 147.869L26.7607 143.225V135.485Z M26.7607 150.08L2.67623 159.368H26.7607V150.08Z M163.24 1.47436L175.282 1.47437L187.324 6.1183V13.8582L163.24 4.57032V1.47436Z M163.24 11.4257L187.324 20.7135V28.4534L163.24 19.1656V11.4257Z M163.24 26.0209L187.324 35.3088V43.0487L163.24 33.7608V26.0209Z M163.24 40.6161L187.324 49.904V57.6439L163.24 48.356V40.6161Z M163.24 55.2114L187.324 64.4992V72.2391L163.24 62.9513V55.2114Z M163.24 69.8066L187.324 79.0945V86.8344L163.24 77.5465V69.8066Z M163.24 69.8066L187.324 79.0945V86.8344L163.24 77.5465V69.8066Z M163.24 84.4018L187.324 93.6897V101.43L163.24 92.1417V84.4018Z M163.24 98.9971L187.324 108.285V116.025L163.24 106.737V98.9971Z M163.24 113.592L187.324 122.88V130.62L163.24 121.332V113.592Z M163.24 128.188L187.324 137.475V145.215L163.24 135.927V128.188Z M163.24 142.783L187.324 152.071V159.811L163.24 150.523V142.783Z M163.24 157.378L167.13 158.879H163.24V157.378Z" class="caution__band"/>
<rect x="1" y="1.47388" width="188" height="157.252" rx="2" class="caution__border"/>
<rect x="29.6104" y="1.96918" width="130.779" height="155.514" class="caution__background"/>
<rect x="43.8169" y="29.4532" width="102.366" height="58.8135" class="caution__border"/>
<rect x="42.8169" y="96.5643" width="104.366" height="58.3809" class="caution__rectangle"/>
</svg>
