<svg width="0" height="0" viewBox="0 0 88 255" fill="none" xmlns="http://www.w3.org/2000/svg" preserveAspectRatio="none" class="connection-server">
<path d="M51.551 246.871H42.5865V252H60.1079V246.871H51.551Z" class="connection-server__rectangle"/>
<path d="M18.9636 8.12913H10V3H27.5214V8.12913H18.9636Z" class="connection-server__rectangle"/>
<path d="M71.8052 108.939V154.162H78.4443H85V108.939H78.4443H71.8052Z" class="connection-server__rectangle"/>
<path d="M2.5 128.939V136H51.551V128.939H2.5Z" class="connection-server__rectangle"/>
<path d="M2.5 145.939V153H51.551V145.939H2.5Z" class="connection-server__rectangle"/>
<path d="M2.5 162.939V170H51.551V162.939H2.5Z" class="connection-server__rectangle"/>
<path d="M51.551 246.871V212.036L78.4443 176.773L78.4443 154.162M51.551 246.871H42.5865V252H60.1079V246.871H51.551ZM18.9636 8.12913V39.2199L78.4443 88.6825V108.939M18.9636 8.12913H10V3H27.5214V8.12913H18.9636ZM71.8052 108.939V154.162M71.8052 108.939H85M71.8052 108.939H78.4443M71.8052 154.162H85M71.8052 154.162H78.4443M78.4443 154.162H85M78.4443 108.939H85M85 154.162V108.939M2.5 128.939V136H51.551V128.939H2.5ZM2.5 145.939V153H51.551V145.939H2.5ZM2.5 162.939V170H51.551V162.939H2.5Z" class="connection-server__line"/>
</svg>