<svg width="0" height="0" viewBox="0 0 1083 561" fill="none" xmlns="http://www.w3.org/2000/svg" preserveAspectRatio="none" class="connection-request connection-request--lg">
<path d="M163.84 355.301L163.84 346.336L158.71 346.336L158.71 363.858L163.84 363.858L163.84 355.301Z" class="connection-request__rectangle"/>
<path d="M601.774 513.555L246.55 513.555L246.55 522.194L246.55 530.75L343 530.75L601.774 530.75L601.774 522.194L601.774 513.555Z" class="connection-request__rectangle"/>
<path d="M1075.09 132.714L1075.09 123.75L1080.22 123.75L1080.22 141.271L1075.09 141.271L1075.09 132.714Z" class="connection-request__rectangle"/>
<path d="M1075.09 192.445L1075.09 183.481L1080.22 183.481L1080.22 201.003L1075.09 201.003L1075.09 192.445Z" class="connection-request__rectangle"/>
<path d="M718 425L840 425L840 418.25L840 409.5L718 409.5L718 417.5L718 425Z" class="connection-request__rectangle"/>
<path d="M163.84 355.301L196.675 355.301L210.495 370L210.495 508.5L223.938 522.194L246.55 522.194M163.84 355.301L163.84 346.336L158.71 346.336L158.71 363.858L163.84 363.858L163.84 355.301ZM779 425L706 522.194L601.774 522.194M601.774 513.555L601.774 530.75M601.774 513.555L601.774 522.194M601.774 513.555L246.55 513.555M246.55 513.555L246.55 530.75M246.55 513.555L246.55 522.194M246.55 522.194L246.55 530.75M601.774 522.194L601.774 530.75M246.55 530.75L343 530.75M601.774 530.75L343 530.75M453.495 513.555L528.5 417.5L718 417.5M1075.09 132.714L1075.09 123.75L1080.22 123.75L1080.22 141.271L1075.09 141.271L1075.09 132.714ZM1075.09 132.714L1030 132.714L972.5 196.5L972.5 354.5L913.495 417.5L840 418.25M1075.09 192.445L1047.76 192.445L1010.71 239.5L1010.71 413.5L961.495 463.75L884 463.75L812 558.5L370.75 558.5L343 530.75M718 417.5L718 409.5L840 409.5L840 418.25M718 417.5L718 425L840 425L840 418.25M1075.09 192.445L1075.09 183.481L1080.22 183.481L1080.22 201.003L1075.09 201.003L1075.09 192.445ZM3 2.99996L3 23.5L278.5 23.5L278.5 2.99996L3 2.99996ZM3 43L3 63.5L278.5 63.5L278.5 43L3 43ZM3 83L3 103.5L278.5 103.5L278.5 83L3 83ZM2.99999 123L2.99999 143.5L278.5 143.5L278.5 123L2.99999 123ZM2.99999 163L2.99999 183.5L278.5 183.5L278.5 163L2.99999 163ZM2.99999 203L2.99999 223.5L278.5 223.5L278.5 203L2.99999 203ZM2.99999 243L2.99999 263.5L278.5 263.5L278.5 243L2.99999 243Z" class="connection-request__line"/>
</svg>
