<svg width="0" height="0" viewBox="0 0 487 434" fill="none" xmlns="http://www.w3.org/2000/svg" preserveAspectRatio="none" class="connection-response connection-response--sm">
<path d="M446.364 280.301H483.977V333.834H470.17H460.767H446.364V280.301Z" class="connection-response__rectangle"/>
<path d="M12.5115 88.4023H3V93.8464H21.5906V88.4023H12.5115Z" class="connection-response__rectangle"/>
<path d="M346.061 303.496V293.515H340.873V313.023H346.061V303.496Z" class="connection-response__rectangle"/>
<path d="M102.5 14V23.5H279.5V14V3H102.5V14Z" class="connection-response__rectangle"/>
<path d="M353.511 133.5V221.5H362V133.5H353.511Z" class="connection-response__rectangle"/>
<path d="M470.17 333.834H483.977V280.301H446.364V333.834H460.767M470.17 333.834V396.499L446.364 430.751H433.177L411.993 411.47V336.841L389.511 311.435L368.11 310.301L362.706 303.496H346.061M470.17 333.834H460.767M346.061 303.496V293.515H340.873V313.023H346.061V303.496ZM460.767 333.834V396.499L446.364 411.47H433.177L417.397 396.499V332.531L376.325 284.215V51.428L352.546 14H279.5M12.5115 88.4023V51.428L41.0458 14H102.5M12.5115 88.4023H3V93.8464H21.5906V88.4023H12.5115ZM102.5 14V23.5H279.5V14M102.5 14V3H279.5V14M353.511 133.5V221.5H362V133.5H353.511Z" class="connection-response__line"/>
</svg>
