<svg width="0" height="0" viewBox="0 0 561 1083" fill="none" xmlns="http://www.w3.org/2000/svg" preserveAspectRatio="none" class="connection-request connection-request--sm">
<path d="M206.059 919.52H215.023V924.649L197.502 924.649V919.52L206.059 919.52Z" class="connection-request__rectangle"/>
<path d="M47.8044 351.586L47.8044 596.81H39.1652H30.6096V500.36L30.6096 351.586H39.1652H47.8044Z" class="connection-request__rectangle"/>
<path d="M428.646 8.27395L437.609 8.27395V3.14482L420.088 3.14482V8.27395H428.646Z" class="connection-request__rectangle"/>
<path d="M368.914 8.26926L377.878 8.26926V3.14014L360.357 3.14014V8.26926L368.914 8.26926Z" class="connection-request__rectangle"/>
<path d="M136.359 295.36V193.36H143.109H151.859V295.36H143.859H136.359Z" class="connection-request__rectangle"/>
<path d="M181 72.651V82.5L39.1652 82.5V70.75V59L181 59V72.651Z" class="connection-request__rectangle"/>
<path d="M206.059 919.52L206.059 886.685L191.359 872.865H52.8594L39.1652 859.422V596.81M206.059 919.52H215.023V924.649L197.502 924.649V919.52L206.059 919.52ZM136.359 244.36L39.1652 307.36V351.586M47.8044 351.586H30.6096M47.8044 351.586H39.1652M47.8044 351.586L47.8044 596.81M47.8044 596.81H30.6096M47.8044 596.81H39.1652M39.1652 596.81H30.6096M39.1652 351.586H30.6096M30.6096 596.81V500.36M30.6096 351.586L30.6096 500.36M47.8044 449.865L143.859 354.86V295.36M428.646 8.27395L437.609 8.27395V3.14482L420.088 3.14482V8.27395H428.646ZM428.646 8.27395V53.3599L364.859 110.86L206.859 110.86L143.859 169.865L143.109 193.36M181 72.651L321.859 72.651L368.914 35.596V8.27395M181 72.651V82.5L39.1652 82.5V70.75M181 72.651V59L39.1652 59V70.75M30.6096 500.36L2.85931 472.61L2.85931 88.3907L20.5 70.75H39.1652M143.859 295.36H151.859V193.36H143.109M143.859 295.36H136.359V193.36H143.109M368.914 8.26926L377.878 8.26926V3.14014L360.357 3.14014V8.26926L368.914 8.26926ZM558.359 1080.36H537.859L537.859 804.86H558.359L558.359 1080.36ZM518.359 1080.36H497.859L497.859 804.86H518.359L518.359 1080.36ZM478.359 1080.36H457.859L457.859 804.86H478.359L478.359 1080.36ZM438.359 1080.36H417.859L417.859 804.86H438.359L438.359 1080.36ZM398.359 1080.36H377.859L377.859 804.86H398.359L398.359 1080.36ZM358.359 1080.36H337.859L337.859 804.86H358.359L358.359 1080.36ZM318.359 1080.36H297.859L297.859 804.86H318.359L318.359 1080.36Z" class="connection-request__line"/>
</svg>
</svg>

