<svg width="0" height="0" viewBox="0 0 472 464" fill="none" xmlns="http://www.w3.org/2000/svg" class="server__layer">
<path d="M307.217 217.603L308.061 217.521C308.111 217.804 308.214 218.012 308.368 218.145C308.524 218.277 308.734 218.344 308.998 218.344C309.277 218.344 309.487 218.285 309.628 218.168C309.771 218.049 309.842 217.91 309.842 217.752C309.842 217.65 309.812 217.564 309.751 217.494C309.692 217.422 309.589 217.359 309.44 217.307C309.339 217.271 309.107 217.209 308.746 217.119C308.281 217.004 307.955 216.862 307.768 216.694C307.504 216.458 307.372 216.17 307.372 215.83C307.372 215.611 307.434 215.407 307.557 215.218C307.682 215.026 307.86 214.881 308.093 214.781C308.327 214.682 308.609 214.632 308.939 214.632C309.479 214.632 309.884 214.75 310.155 214.986C310.429 215.223 310.572 215.538 310.586 215.933L309.719 215.971C309.682 215.75 309.602 215.592 309.479 215.496C309.357 215.398 309.175 215.35 308.931 215.35C308.679 215.35 308.481 215.401 308.339 215.505C308.247 215.571 308.201 215.66 308.201 215.771C308.201 215.873 308.244 215.96 308.33 216.032C308.439 216.124 308.705 216.22 309.127 216.319C309.549 216.419 309.86 216.522 310.062 216.63C310.265 216.735 310.423 216.881 310.536 217.066C310.651 217.25 310.709 217.478 310.709 217.749C310.709 217.995 310.641 218.226 310.504 218.44C310.367 218.655 310.174 218.815 309.924 218.921C309.674 219.024 309.362 219.076 308.989 219.076C308.446 219.076 308.029 218.951 307.738 218.701C307.447 218.449 307.273 218.083 307.217 217.603ZM312.386 219V217.192L310.813 214.705H311.83L312.841 216.404L313.831 214.705H314.83L313.251 217.198V219H312.386ZM314.861 217.603L315.704 217.521C315.755 217.804 315.858 218.012 316.012 218.145C316.168 218.277 316.378 218.344 316.642 218.344C316.921 218.344 317.131 218.285 317.272 218.168C317.414 218.049 317.486 217.91 317.486 217.752C317.486 217.65 317.455 217.564 317.395 217.494C317.336 217.422 317.233 217.359 317.084 217.307C316.983 217.271 316.751 217.209 316.39 217.119C315.925 217.004 315.599 216.862 315.411 216.694C315.148 216.458 315.016 216.17 315.016 215.83C315.016 215.611 315.077 215.407 315.201 215.218C315.326 215.026 315.504 214.881 315.737 214.781C315.971 214.682 316.253 214.632 316.583 214.632C317.122 214.632 317.528 214.75 317.799 214.986C318.073 215.223 318.216 215.538 318.23 215.933L317.363 215.971C317.326 215.75 317.245 215.592 317.122 215.496C317.001 215.398 316.819 215.35 316.575 215.35C316.323 215.35 316.125 215.401 315.983 215.505C315.891 215.571 315.845 215.66 315.845 215.771C315.845 215.873 315.888 215.96 315.974 216.032C316.083 216.124 316.349 216.22 316.771 216.319C317.193 216.419 317.504 216.522 317.705 216.63C317.909 216.735 318.067 216.881 318.18 217.066C318.295 217.25 318.353 217.478 318.353 217.749C318.353 217.995 318.285 218.226 318.148 218.44C318.011 218.655 317.818 218.815 317.568 218.921C317.318 219.024 317.006 219.076 316.633 219.076C316.09 219.076 315.673 218.951 315.382 218.701C315.091 218.449 314.917 218.083 314.861 217.603ZM319.869 219V215.432H318.595V214.705H322.008V215.432H320.736V219H319.869ZM322.39 219V214.705H325.575V215.432H323.258V216.384H325.414V217.107H323.258V218.276H325.657V219H322.39ZM326.201 219V214.705H327.498L328.278 217.635L329.048 214.705H330.349V219H329.543V215.619L328.691 219H327.856L327.006 215.619V219H326.201ZM332.544 219V214.74H333.411V218.276H335.567V219H332.544ZM336.008 219V214.705H339.193V215.432H336.875V216.384H339.032V217.107H336.875V218.276H339.275V219H336.008ZM340.926 219L339.391 214.705H340.331L341.418 217.884L342.47 214.705H343.39L341.852 219H340.926ZM343.652 219V214.705H346.837V215.432H344.519V216.384H346.676V217.107H344.519V218.276H346.919V219H343.652ZM347.498 219V214.74H348.365V218.276H350.521V219H347.498ZM354.265 219H353.442V215.897C353.141 216.179 352.787 216.387 352.379 216.521V215.774C352.594 215.704 352.827 215.571 353.079 215.376C353.331 215.179 353.504 214.949 353.597 214.688H354.265V219Z"  class="server__status-text"/>
<path d="M307.217 230.603L308.061 230.521C308.111 230.804 308.214 231.012 308.368 231.145C308.524 231.277 308.734 231.344 308.998 231.344C309.277 231.344 309.487 231.285 309.628 231.168C309.771 231.049 309.842 230.91 309.842 230.752C309.842 230.65 309.812 230.564 309.751 230.494C309.692 230.422 309.589 230.359 309.44 230.307C309.339 230.271 309.107 230.209 308.746 230.119C308.281 230.004 307.955 229.862 307.768 229.694C307.504 229.458 307.372 229.17 307.372 228.83C307.372 228.611 307.434 228.407 307.557 228.218C307.682 228.026 307.86 227.881 308.093 227.781C308.327 227.682 308.609 227.632 308.939 227.632C309.479 227.632 309.884 227.75 310.155 227.986C310.429 228.223 310.572 228.538 310.586 228.933L309.719 228.971C309.682 228.75 309.602 228.592 309.479 228.496C309.357 228.398 309.175 228.35 308.931 228.35C308.679 228.35 308.481 228.401 308.339 228.505C308.247 228.571 308.201 228.66 308.201 228.771C308.201 228.873 308.244 228.96 308.33 229.032C308.439 229.124 308.705 229.22 309.127 229.319C309.549 229.419 309.86 229.522 310.062 229.63C310.265 229.735 310.423 229.881 310.536 230.066C310.651 230.25 310.709 230.478 310.709 230.749C310.709 230.995 310.641 231.226 310.504 231.44C310.367 231.655 310.174 231.815 309.924 231.921C309.674 232.024 309.362 232.076 308.989 232.076C308.446 232.076 308.029 231.951 307.738 231.701C307.447 231.449 307.273 231.083 307.217 230.603ZM312.386 232V230.192L310.813 227.705H311.83L312.841 229.404L313.831 227.705H314.83L313.251 230.198V232H312.386ZM314.861 230.603L315.704 230.521C315.755 230.804 315.858 231.012 316.012 231.145C316.168 231.277 316.378 231.344 316.642 231.344C316.921 231.344 317.131 231.285 317.272 231.168C317.414 231.049 317.486 230.91 317.486 230.752C317.486 230.65 317.455 230.564 317.395 230.494C317.336 230.422 317.233 230.359 317.084 230.307C316.983 230.271 316.751 230.209 316.39 230.119C315.925 230.004 315.599 229.862 315.411 229.694C315.148 229.458 315.016 229.17 315.016 228.83C315.016 228.611 315.077 228.407 315.201 228.218C315.326 228.026 315.504 227.881 315.737 227.781C315.971 227.682 316.253 227.632 316.583 227.632C317.122 227.632 317.528 227.75 317.799 227.986C318.073 228.223 318.216 228.538 318.23 228.933L317.363 228.971C317.326 228.75 317.245 228.592 317.122 228.496C317.001 228.398 316.819 228.35 316.575 228.35C316.323 228.35 316.125 228.401 315.983 228.505C315.891 228.571 315.845 228.66 315.845 228.771C315.845 228.873 315.888 228.96 315.974 229.032C316.083 229.124 316.349 229.22 316.771 229.319C317.193 229.419 317.504 229.522 317.705 229.63C317.909 229.735 318.067 229.881 318.18 230.066C318.295 230.25 318.353 230.478 318.353 230.749C318.353 230.995 318.285 231.226 318.148 231.44C318.011 231.655 317.818 231.815 317.568 231.921C317.318 232.024 317.006 232.076 316.633 232.076C316.09 232.076 315.673 231.951 315.382 231.701C315.091 231.449 314.917 231.083 314.861 230.603ZM319.869 232V228.432H318.595V227.705H322.008V228.432H320.736V232H319.869ZM322.39 232V227.705H325.575V228.432H323.258V229.384H325.414V230.107H323.258V231.276H325.657V232H322.39ZM326.201 232V227.705H327.498L328.278 230.635L329.048 227.705H330.349V232H329.543V228.619L328.691 232H327.856L327.006 228.619V232H326.201ZM332.544 232V227.74H333.411V231.276H335.567V232H332.544ZM336.008 232V227.705H339.193V228.432H336.875V229.384H339.032V230.107H336.875V231.276H339.275V232H336.008ZM340.926 232L339.391 227.705H340.331L341.418 230.884L342.47 227.705H343.39L341.852 232H340.926ZM343.652 232V227.705H346.837V228.432H344.519V229.384H346.676V230.107H344.519V231.276H346.919V232H343.652ZM347.498 232V227.74H348.365V231.276H350.521V232H347.498ZM354.939 231.235V232H352.054C352.085 231.711 352.179 231.438 352.335 231.18C352.491 230.92 352.8 230.576 353.261 230.148C353.632 229.803 353.859 229.568 353.943 229.445C354.056 229.275 354.113 229.107 354.113 228.941C354.113 228.758 354.063 228.617 353.964 228.52C353.866 228.42 353.73 228.37 353.556 228.37C353.385 228.37 353.248 228.422 353.146 228.525C353.045 228.629 352.986 228.801 352.971 229.041L352.15 228.959C352.199 228.506 352.352 228.181 352.61 227.983C352.868 227.786 353.19 227.688 353.577 227.688C354.001 227.688 354.334 227.802 354.576 228.03C354.818 228.259 354.939 228.543 354.939 228.883C354.939 229.076 354.904 229.261 354.834 229.437C354.765 229.61 354.656 229.793 354.506 229.984C354.406 230.111 354.226 230.294 353.967 230.532C353.707 230.771 353.542 230.929 353.472 231.007C353.403 231.085 353.347 231.161 353.305 231.235H354.939Z"  class="server__status-text"/>
<path d="M307.217 244.603L308.061 244.521C308.111 244.804 308.214 245.012 308.368 245.145C308.524 245.277 308.734 245.344 308.998 245.344C309.277 245.344 309.487 245.285 309.628 245.168C309.771 245.049 309.842 244.91 309.842 244.752C309.842 244.65 309.812 244.564 309.751 244.494C309.692 244.422 309.589 244.359 309.44 244.307C309.339 244.271 309.107 244.209 308.746 244.119C308.281 244.004 307.955 243.862 307.768 243.694C307.504 243.458 307.372 243.17 307.372 242.83C307.372 242.611 307.434 242.407 307.557 242.218C307.682 242.026 307.86 241.881 308.093 241.781C308.327 241.682 308.609 241.632 308.939 241.632C309.479 241.632 309.884 241.75 310.155 241.986C310.429 242.223 310.572 242.538 310.586 242.933L309.719 242.971C309.682 242.75 309.602 242.592 309.479 242.496C309.357 242.398 309.175 242.35 308.931 242.35C308.679 242.35 308.481 242.401 308.339 242.505C308.247 242.571 308.201 242.66 308.201 242.771C308.201 242.873 308.244 242.96 308.33 243.032C308.439 243.124 308.705 243.22 309.127 243.319C309.549 243.419 309.86 243.522 310.062 243.63C310.265 243.735 310.423 243.881 310.536 244.066C310.651 244.25 310.709 244.478 310.709 244.749C310.709 244.995 310.641 245.226 310.504 245.44C310.367 245.655 310.174 245.815 309.924 245.921C309.674 246.024 309.362 246.076 308.989 246.076C308.446 246.076 308.029 245.951 307.738 245.701C307.447 245.449 307.273 245.083 307.217 244.603ZM312.386 246V244.192L310.813 241.705H311.83L312.841 243.404L313.831 241.705H314.83L313.251 244.198V246H312.386ZM314.861 244.603L315.704 244.521C315.755 244.804 315.858 245.012 316.012 245.145C316.168 245.277 316.378 245.344 316.642 245.344C316.921 245.344 317.131 245.285 317.272 245.168C317.414 245.049 317.486 244.91 317.486 244.752C317.486 244.65 317.455 244.564 317.395 244.494C317.336 244.422 317.233 244.359 317.084 244.307C316.983 244.271 316.751 244.209 316.39 244.119C315.925 244.004 315.599 243.862 315.411 243.694C315.148 243.458 315.016 243.17 315.016 242.83C315.016 242.611 315.077 242.407 315.201 242.218C315.326 242.026 315.504 241.881 315.737 241.781C315.971 241.682 316.253 241.632 316.583 241.632C317.122 241.632 317.528 241.75 317.799 241.986C318.073 242.223 318.216 242.538 318.23 242.933L317.363 242.971C317.326 242.75 317.245 242.592 317.122 242.496C317.001 242.398 316.819 242.35 316.575 242.35C316.323 242.35 316.125 242.401 315.983 242.505C315.891 242.571 315.845 242.66 315.845 242.771C315.845 242.873 315.888 242.96 315.974 243.032C316.083 243.124 316.349 243.22 316.771 243.319C317.193 243.419 317.504 243.522 317.705 243.63C317.909 243.735 318.067 243.881 318.18 244.066C318.295 244.25 318.353 244.478 318.353 244.749C318.353 244.995 318.285 245.226 318.148 245.44C318.011 245.655 317.818 245.815 317.568 245.921C317.318 246.024 317.006 246.076 316.633 246.076C316.09 246.076 315.673 245.951 315.382 245.701C315.091 245.449 314.917 245.083 314.861 244.603ZM319.869 246V242.432H318.595V241.705H322.008V242.432H320.736V246H319.869ZM322.39 246V241.705H325.575V242.432H323.258V243.384H325.414V244.107H323.258V245.276H325.657V246H322.39ZM326.201 246V241.705H327.498L328.278 244.635L329.048 241.705H330.349V246H329.543V242.619L328.691 246H327.856L327.006 242.619V246H326.201ZM332.544 246V241.74H333.411V245.276H335.567V246H332.544ZM336.008 246V241.705H339.193V242.432H336.875V243.384H339.032V244.107H336.875V245.276H339.275V246H336.008ZM340.926 246L339.391 241.705H340.331L341.418 244.884L342.47 241.705H343.39L341.852 246H340.926ZM343.652 246V241.705H346.837V242.432H344.519V243.384H346.676V244.107H344.519V245.276H346.919V246H343.652ZM347.498 246V241.74H348.365V245.276H350.521V246H347.498ZM352.13 244.86L352.927 244.764C352.952 244.967 353.02 245.122 353.132 245.229C353.243 245.337 353.378 245.391 353.536 245.391C353.706 245.391 353.848 245.326 353.964 245.197C354.081 245.068 354.139 244.895 354.139 244.676C354.139 244.469 354.084 244.305 353.972 244.184C353.861 244.062 353.725 244.002 353.565 244.002C353.46 244.002 353.334 244.022 353.187 244.063L353.278 243.393C353.501 243.398 353.671 243.351 353.788 243.249C353.905 243.146 353.964 243.009 353.964 242.839C353.964 242.694 353.921 242.579 353.835 242.493C353.749 242.407 353.635 242.364 353.492 242.364C353.351 242.364 353.231 242.413 353.132 242.511C353.032 242.608 352.972 242.751 352.95 242.938L352.191 242.81C352.244 242.55 352.323 242.343 352.429 242.188C352.536 242.032 352.684 241.91 352.874 241.822C353.065 241.732 353.279 241.688 353.515 241.688C353.92 241.688 354.244 241.816 354.488 242.074C354.689 242.285 354.79 242.523 354.79 242.789C354.79 243.166 354.584 243.467 354.172 243.691C354.418 243.744 354.614 243.862 354.761 244.046C354.909 244.229 354.983 244.451 354.983 244.711C354.983 245.088 354.846 245.409 354.57 245.675C354.295 245.94 353.952 246.073 353.542 246.073C353.153 246.073 352.831 245.962 352.575 245.739C352.319 245.515 352.171 245.222 352.13 244.86Z"  class="server__status-text"/>
<path d="M307.217 257.603L308.061 257.521C308.111 257.804 308.214 258.012 308.368 258.145C308.524 258.277 308.734 258.344 308.998 258.344C309.277 258.344 309.487 258.285 309.628 258.168C309.771 258.049 309.842 257.91 309.842 257.752C309.842 257.65 309.812 257.564 309.751 257.494C309.692 257.422 309.589 257.359 309.44 257.307C309.339 257.271 309.107 257.209 308.746 257.119C308.281 257.004 307.955 256.862 307.768 256.694C307.504 256.458 307.372 256.17 307.372 255.83C307.372 255.611 307.434 255.407 307.557 255.218C307.682 255.026 307.86 254.881 308.093 254.781C308.327 254.682 308.609 254.632 308.939 254.632C309.479 254.632 309.884 254.75 310.155 254.986C310.429 255.223 310.572 255.538 310.586 255.933L309.719 255.971C309.682 255.75 309.602 255.592 309.479 255.496C309.357 255.398 309.175 255.35 308.931 255.35C308.679 255.35 308.481 255.401 308.339 255.505C308.247 255.571 308.201 255.66 308.201 255.771C308.201 255.873 308.244 255.96 308.33 256.032C308.439 256.124 308.705 256.22 309.127 256.319C309.549 256.419 309.86 256.522 310.062 256.63C310.265 256.735 310.423 256.881 310.536 257.066C310.651 257.25 310.709 257.478 310.709 257.749C310.709 257.995 310.641 258.226 310.504 258.44C310.367 258.655 310.174 258.815 309.924 258.921C309.674 259.024 309.362 259.076 308.989 259.076C308.446 259.076 308.029 258.951 307.738 258.701C307.447 258.449 307.273 258.083 307.217 257.603ZM312.386 259V257.192L310.813 254.705H311.83L312.841 256.404L313.831 254.705H314.83L313.251 257.198V259H312.386ZM314.861 257.603L315.704 257.521C315.755 257.804 315.858 258.012 316.012 258.145C316.168 258.277 316.378 258.344 316.642 258.344C316.921 258.344 317.131 258.285 317.272 258.168C317.414 258.049 317.486 257.91 317.486 257.752C317.486 257.65 317.455 257.564 317.395 257.494C317.336 257.422 317.233 257.359 317.084 257.307C316.983 257.271 316.751 257.209 316.39 257.119C315.925 257.004 315.599 256.862 315.411 256.694C315.148 256.458 315.016 256.17 315.016 255.83C315.016 255.611 315.077 255.407 315.201 255.218C315.326 255.026 315.504 254.881 315.737 254.781C315.971 254.682 316.253 254.632 316.583 254.632C317.122 254.632 317.528 254.75 317.799 254.986C318.073 255.223 318.216 255.538 318.23 255.933L317.363 255.971C317.326 255.75 317.245 255.592 317.122 255.496C317.001 255.398 316.819 255.35 316.575 255.35C316.323 255.35 316.125 255.401 315.983 255.505C315.891 255.571 315.845 255.66 315.845 255.771C315.845 255.873 315.888 255.96 315.974 256.032C316.083 256.124 316.349 256.22 316.771 256.319C317.193 256.419 317.504 256.522 317.705 256.63C317.909 256.735 318.067 256.881 318.18 257.066C318.295 257.25 318.353 257.478 318.353 257.749C318.353 257.995 318.285 258.226 318.148 258.44C318.011 258.655 317.818 258.815 317.568 258.921C317.318 259.024 317.006 259.076 316.633 259.076C316.09 259.076 315.673 258.951 315.382 258.701C315.091 258.449 314.917 258.083 314.861 257.603ZM319.869 259V255.432H318.595V254.705H322.008V255.432H320.736V259H319.869ZM322.39 259V254.705H325.575V255.432H323.258V256.384H325.414V257.107H323.258V258.276H325.657V259H322.39ZM326.201 259V254.705H327.498L328.278 257.635L329.048 254.705H330.349V259H329.543V255.619L328.691 259H327.856L327.006 255.619V259H326.201ZM332.544 259V254.74H333.411V258.276H335.567V259H332.544ZM336.008 259V254.705H339.193V255.432H336.875V256.384H339.032V257.107H336.875V258.276H339.275V259H336.008ZM340.926 259L339.391 254.705H340.331L341.418 257.884L342.47 254.705H343.39L341.852 259H340.926ZM343.652 259V254.705H346.837V255.432H344.519V256.384H346.676V257.107H344.519V258.276H346.919V259H343.652ZM347.498 259V254.74H348.365V258.276H350.521V259H347.498ZM353.773 259V258.136H352.015V257.415L353.879 254.688H354.57V257.412H355.103V258.136H354.57V259H353.773ZM353.773 257.412V255.944L352.786 257.412H353.773Z"  class="server__status-text"/>
<path d="M196.361 395.671L197.768 395.534C197.852 396.006 198.023 396.353 198.28 396.574C198.541 396.796 198.891 396.906 199.33 396.906C199.796 396.906 200.146 396.809 200.38 396.613C200.618 396.415 200.736 396.184 200.736 395.92C200.736 395.751 200.686 395.607 200.585 395.49C200.487 395.37 200.315 395.266 200.067 395.178C199.898 395.119 199.512 395.015 198.91 394.865C198.135 394.673 197.592 394.437 197.279 394.157C196.84 393.763 196.62 393.283 196.62 392.717C196.62 392.352 196.723 392.012 196.928 391.696C197.136 391.377 197.434 391.135 197.821 390.969C198.212 390.803 198.682 390.72 199.232 390.72C200.131 390.72 200.806 390.917 201.259 391.311C201.715 391.704 201.954 392.23 201.977 392.888L200.531 392.951C200.469 392.583 200.336 392.32 200.131 392.16C199.929 391.997 199.625 391.916 199.218 391.916C198.798 391.916 198.469 392.002 198.231 392.175C198.078 392.285 198.002 392.434 198.002 392.619C198.002 392.788 198.074 392.933 198.217 393.054C198.399 393.207 198.842 393.366 199.545 393.532C200.248 393.698 200.767 393.871 201.103 394.05C201.441 394.226 201.705 394.468 201.894 394.777C202.086 395.083 202.182 395.463 202.182 395.915C202.182 396.325 202.068 396.709 201.84 397.067C201.612 397.425 201.29 397.692 200.873 397.868C200.456 398.041 199.937 398.127 199.315 398.127C198.41 398.127 197.715 397.919 197.23 397.502C196.745 397.082 196.456 396.472 196.361 395.671ZM204.977 398V394.987L202.355 390.842H204.05L205.734 393.674L207.385 390.842H209.05L206.418 394.997V398H204.977ZM209.101 395.671L210.507 395.534C210.592 396.006 210.763 396.353 211.02 396.574C211.281 396.796 211.63 396.906 212.07 396.906C212.535 396.906 212.885 396.809 213.12 396.613C213.357 396.415 213.476 396.184 213.476 395.92C213.476 395.751 213.426 395.607 213.325 395.49C213.227 395.37 213.055 395.266 212.807 395.178C212.638 395.119 212.252 395.015 211.65 394.865C210.875 394.673 210.332 394.437 210.019 394.157C209.58 393.763 209.36 393.283 209.36 392.717C209.36 392.352 209.462 392.012 209.668 391.696C209.876 391.377 210.174 391.135 210.561 390.969C210.952 390.803 211.422 390.72 211.972 390.72C212.871 390.72 213.546 390.917 213.999 391.311C214.454 391.704 214.694 392.23 214.716 392.888L213.271 392.951C213.209 392.583 213.076 392.32 212.871 392.16C212.669 391.997 212.365 391.916 211.958 391.916C211.538 391.916 211.209 392.002 210.971 392.175C210.818 392.285 210.742 392.434 210.742 392.619C210.742 392.788 210.813 392.933 210.957 393.054C211.139 393.207 211.582 393.366 212.285 393.532C212.988 393.698 213.507 393.871 213.842 394.05C214.181 394.226 214.445 394.468 214.633 394.777C214.825 395.083 214.921 395.463 214.921 395.915C214.921 396.325 214.808 396.709 214.58 397.067C214.352 397.425 214.03 397.692 213.613 397.868C213.196 398.041 212.677 398.127 212.055 398.127C211.15 398.127 210.455 397.919 209.97 397.502C209.485 397.082 209.196 396.472 209.101 395.671ZM217.449 398V392.053H215.325V390.842H221.013V392.053H218.894V398H217.449ZM221.651 398V390.842H226.958V392.053H223.096V393.64H226.69V394.846H223.096V396.794H227.095V398H221.651ZM228.001 398V390.842H230.164L231.463 395.725L232.747 390.842H234.915V398H233.572V392.365L232.151 398H230.76L229.344 392.365V398H228.001ZM238.573 398V390.9H240.018V396.794H243.612V398H238.573ZM244.347 398V390.842H249.655V392.053H245.792V393.64H249.386V394.846H245.792V396.794H249.791V398H244.347ZM252.543 398L249.985 390.842H251.552L253.363 396.14L255.116 390.842H256.65L254.086 398H252.543ZM257.087 398V390.842H262.395V392.053H258.532V393.64H262.126V394.846H258.532V396.794H262.531V398H257.087ZM263.496 398V390.9H264.941V396.794H268.535V398H263.496ZM274.776 398H273.404V392.829C272.902 393.298 272.312 393.645 271.631 393.869V392.624C271.989 392.507 272.378 392.285 272.798 391.96C273.218 391.631 273.506 391.249 273.662 390.812H274.776V398Z"  class="server__status-text"/>
<path d="M196.361 415.671L197.768 415.534C197.852 416.006 198.023 416.353 198.28 416.574C198.541 416.796 198.891 416.906 199.33 416.906C199.796 416.906 200.146 416.809 200.38 416.613C200.618 416.415 200.736 416.184 200.736 415.92C200.736 415.751 200.686 415.607 200.585 415.49C200.487 415.37 200.315 415.266 200.067 415.178C199.898 415.119 199.512 415.015 198.91 414.865C198.135 414.673 197.592 414.437 197.279 414.157C196.84 413.763 196.62 413.283 196.62 412.717C196.62 412.352 196.723 412.012 196.928 411.696C197.136 411.377 197.434 411.135 197.821 410.969C198.212 410.803 198.682 410.72 199.232 410.72C200.131 410.72 200.806 410.917 201.259 411.311C201.715 411.704 201.954 412.23 201.977 412.888L200.531 412.951C200.469 412.583 200.336 412.32 200.131 412.16C199.929 411.997 199.625 411.916 199.218 411.916C198.798 411.916 198.469 412.002 198.231 412.175C198.078 412.285 198.002 412.434 198.002 412.619C198.002 412.788 198.074 412.933 198.217 413.054C198.399 413.207 198.842 413.366 199.545 413.532C200.248 413.698 200.767 413.871 201.103 414.05C201.441 414.226 201.705 414.468 201.894 414.777C202.086 415.083 202.182 415.463 202.182 415.915C202.182 416.325 202.068 416.709 201.84 417.067C201.612 417.425 201.29 417.692 200.873 417.868C200.456 418.041 199.937 418.127 199.315 418.127C198.41 418.127 197.715 417.919 197.23 417.502C196.745 417.082 196.456 416.472 196.361 415.671ZM204.977 418V414.987L202.355 410.842H204.05L205.734 413.674L207.385 410.842H209.05L206.418 414.997V418H204.977ZM209.101 415.671L210.507 415.534C210.592 416.006 210.763 416.353 211.02 416.574C211.281 416.796 211.63 416.906 212.07 416.906C212.535 416.906 212.885 416.809 213.12 416.613C213.357 416.415 213.476 416.184 213.476 415.92C213.476 415.751 213.426 415.607 213.325 415.49C213.227 415.37 213.055 415.266 212.807 415.178C212.638 415.119 212.252 415.015 211.65 414.865C210.875 414.673 210.332 414.437 210.019 414.157C209.58 413.763 209.36 413.283 209.36 412.717C209.36 412.352 209.462 412.012 209.668 411.696C209.876 411.377 210.174 411.135 210.561 410.969C210.952 410.803 211.422 410.72 211.972 410.72C212.871 410.72 213.546 410.917 213.999 411.311C214.454 411.704 214.694 412.23 214.716 412.888L213.271 412.951C213.209 412.583 213.076 412.32 212.871 412.16C212.669 411.997 212.365 411.916 211.958 411.916C211.538 411.916 211.209 412.002 210.971 412.175C210.818 412.285 210.742 412.434 210.742 412.619C210.742 412.788 210.813 412.933 210.957 413.054C211.139 413.207 211.582 413.366 212.285 413.532C212.988 413.698 213.507 413.871 213.842 414.05C214.181 414.226 214.445 414.468 214.633 414.777C214.825 415.083 214.921 415.463 214.921 415.915C214.921 416.325 214.808 416.709 214.58 417.067C214.352 417.425 214.03 417.692 213.613 417.868C213.196 418.041 212.677 418.127 212.055 418.127C211.15 418.127 210.455 417.919 209.97 417.502C209.485 417.082 209.196 416.472 209.101 415.671ZM217.449 418V412.053H215.325V410.842H221.013V412.053H218.894V418H217.449ZM221.651 418V410.842H226.958V412.053H223.096V413.64H226.69V414.846H223.096V416.794H227.095V418H221.651ZM228.001 418V410.842H230.164L231.463 415.725L232.747 410.842H234.915V418H233.572V412.365L232.151 418H230.76L229.344 412.365V418H228.001ZM238.573 418V410.9H240.018V416.794H243.612V418H238.573ZM244.347 418V410.842H249.655V412.053H245.792V413.64H249.386V414.846H245.792V416.794H249.791V418H244.347ZM252.543 418L249.985 410.842H251.552L253.363 416.14L255.116 410.842H256.65L254.086 418H252.543ZM257.087 418V410.842H262.395V412.053H258.532V413.64H262.126V414.846H258.532V416.794H262.531V418H257.087ZM263.496 418V410.9H264.941V416.794H268.535V418H263.496ZM275.899 416.726V418H271.089C271.141 417.518 271.298 417.062 271.558 416.633C271.818 416.2 272.333 415.627 273.101 414.914C273.719 414.338 274.099 413.947 274.239 413.742C274.427 413.459 274.522 413.179 274.522 412.902C274.522 412.596 274.439 412.362 274.273 412.199C274.11 412.033 273.884 411.95 273.594 411.95C273.308 411.95 273.08 412.036 272.911 412.209C272.741 412.382 272.644 412.668 272.618 413.068L271.25 412.932C271.332 412.176 271.587 411.634 272.017 411.306C272.447 410.977 272.984 410.812 273.628 410.812C274.335 410.812 274.89 411.003 275.293 411.384C275.697 411.765 275.899 412.238 275.899 412.805C275.899 413.127 275.84 413.435 275.723 413.728C275.609 414.017 275.427 414.322 275.176 414.641C275.01 414.852 274.711 415.157 274.278 415.554C273.845 415.951 273.57 416.215 273.453 416.345C273.339 416.475 273.246 416.602 273.174 416.726H275.899Z"  class="server__status-text"/>
<path d="M196.361 435.671L197.768 435.534C197.852 436.006 198.023 436.353 198.28 436.574C198.541 436.796 198.891 436.906 199.33 436.906C199.796 436.906 200.146 436.809 200.38 436.613C200.618 436.415 200.736 436.184 200.736 435.92C200.736 435.751 200.686 435.607 200.585 435.49C200.487 435.37 200.315 435.266 200.067 435.178C199.898 435.119 199.512 435.015 198.91 434.865C198.135 434.673 197.592 434.437 197.279 434.157C196.84 433.763 196.62 433.283 196.62 432.717C196.62 432.352 196.723 432.012 196.928 431.696C197.136 431.377 197.434 431.135 197.821 430.969C198.212 430.803 198.682 430.72 199.232 430.72C200.131 430.72 200.806 430.917 201.259 431.311C201.715 431.704 201.954 432.23 201.977 432.888L200.531 432.951C200.469 432.583 200.336 432.32 200.131 432.16C199.929 431.997 199.625 431.916 199.218 431.916C198.798 431.916 198.469 432.002 198.231 432.175C198.078 432.285 198.002 432.434 198.002 432.619C198.002 432.788 198.074 432.933 198.217 433.054C198.399 433.207 198.842 433.366 199.545 433.532C200.248 433.698 200.767 433.871 201.103 434.05C201.441 434.226 201.705 434.468 201.894 434.777C202.086 435.083 202.182 435.463 202.182 435.915C202.182 436.325 202.068 436.709 201.84 437.067C201.612 437.425 201.29 437.692 200.873 437.868C200.456 438.041 199.937 438.127 199.315 438.127C198.41 438.127 197.715 437.919 197.23 437.502C196.745 437.082 196.456 436.472 196.361 435.671ZM204.977 438V434.987L202.355 430.842H204.05L205.734 433.674L207.385 430.842H209.05L206.418 434.997V438H204.977ZM209.101 435.671L210.507 435.534C210.592 436.006 210.763 436.353 211.02 436.574C211.281 436.796 211.63 436.906 212.07 436.906C212.535 436.906 212.885 436.809 213.12 436.613C213.357 436.415 213.476 436.184 213.476 435.92C213.476 435.751 213.426 435.607 213.325 435.49C213.227 435.37 213.055 435.266 212.807 435.178C212.638 435.119 212.252 435.015 211.65 434.865C210.875 434.673 210.332 434.437 210.019 434.157C209.58 433.763 209.36 433.283 209.36 432.717C209.36 432.352 209.462 432.012 209.668 431.696C209.876 431.377 210.174 431.135 210.561 430.969C210.952 430.803 211.422 430.72 211.972 430.72C212.871 430.72 213.546 430.917 213.999 431.311C214.454 431.704 214.694 432.23 214.716 432.888L213.271 432.951C213.209 432.583 213.076 432.32 212.871 432.16C212.669 431.997 212.365 431.916 211.958 431.916C211.538 431.916 211.209 432.002 210.971 432.175C210.818 432.285 210.742 432.434 210.742 432.619C210.742 432.788 210.813 432.933 210.957 433.054C211.139 433.207 211.582 433.366 212.285 433.532C212.988 433.698 213.507 433.871 213.842 434.05C214.181 434.226 214.445 434.468 214.633 434.777C214.825 435.083 214.921 435.463 214.921 435.915C214.921 436.325 214.808 436.709 214.58 437.067C214.352 437.425 214.03 437.692 213.613 437.868C213.196 438.041 212.677 438.127 212.055 438.127C211.15 438.127 210.455 437.919 209.97 437.502C209.485 437.082 209.196 436.472 209.101 435.671ZM217.449 438V432.053H215.325V430.842H221.013V432.053H218.894V438H217.449ZM221.651 438V430.842H226.958V432.053H223.096V433.64H226.69V434.846H223.096V436.794H227.095V438H221.651ZM228.001 438V430.842H230.164L231.463 435.725L232.747 430.842H234.915V438H233.572V432.365L232.151 438H230.76L229.344 432.365V438H228.001ZM238.573 438V430.9H240.018V436.794H243.612V438H238.573ZM244.347 438V430.842H249.655V432.053H245.792V433.64H249.386V434.846H245.792V436.794H249.791V438H244.347ZM252.543 438L249.985 430.842H251.552L253.363 436.14L255.116 430.842H256.65L254.086 438H252.543ZM257.087 438V430.842H262.395V432.053H258.532V433.64H262.126V434.846H258.532V436.794H262.531V438H257.087ZM263.496 438V430.9H264.941V436.794H268.535V438H263.496ZM271.216 436.101L272.544 435.939C272.587 436.278 272.701 436.537 272.886 436.716C273.072 436.895 273.296 436.984 273.56 436.984C273.843 436.984 274.081 436.877 274.273 436.662C274.468 436.447 274.566 436.158 274.566 435.793C274.566 435.448 274.473 435.174 274.287 434.973C274.102 434.771 273.876 434.67 273.609 434.67C273.433 434.67 273.223 434.704 272.979 434.772L273.13 433.654C273.501 433.664 273.785 433.584 273.98 433.415C274.175 433.243 274.273 433.015 274.273 432.731C274.273 432.491 274.201 432.299 274.058 432.155C273.915 432.012 273.724 431.94 273.487 431.94C273.252 431.94 273.052 432.022 272.886 432.185C272.72 432.347 272.619 432.585 272.583 432.897L271.319 432.683C271.407 432.25 271.538 431.905 271.714 431.647C271.893 431.387 272.141 431.184 272.456 431.037C272.775 430.887 273.132 430.812 273.526 430.812C274.2 430.812 274.74 431.027 275.147 431.457C275.482 431.809 275.65 432.206 275.65 432.648C275.65 433.277 275.306 433.778 274.62 434.152C275.03 434.24 275.357 434.437 275.601 434.743C275.848 435.049 275.972 435.419 275.972 435.852C275.972 436.48 275.743 437.015 275.284 437.458C274.825 437.901 274.253 438.122 273.57 438.122C272.922 438.122 272.385 437.937 271.958 437.565C271.532 437.191 271.285 436.703 271.216 436.101Z"  class="server__status-text"/>
<path d="M196.361 455.671L197.768 455.534C197.852 456.006 198.023 456.353 198.28 456.574C198.541 456.796 198.891 456.906 199.33 456.906C199.796 456.906 200.146 456.809 200.38 456.613C200.618 456.415 200.736 456.184 200.736 455.92C200.736 455.751 200.686 455.607 200.585 455.49C200.487 455.37 200.315 455.266 200.067 455.178C199.898 455.119 199.512 455.015 198.91 454.865C198.135 454.673 197.592 454.437 197.279 454.157C196.84 453.763 196.62 453.283 196.62 452.717C196.62 452.352 196.723 452.012 196.928 451.696C197.136 451.377 197.434 451.135 197.821 450.969C198.212 450.803 198.682 450.72 199.232 450.72C200.131 450.72 200.806 450.917 201.259 451.311C201.715 451.704 201.954 452.23 201.977 452.888L200.531 452.951C200.469 452.583 200.336 452.32 200.131 452.16C199.929 451.997 199.625 451.916 199.218 451.916C198.798 451.916 198.469 452.002 198.231 452.175C198.078 452.285 198.002 452.434 198.002 452.619C198.002 452.788 198.074 452.933 198.217 453.054C198.399 453.207 198.842 453.366 199.545 453.532C200.248 453.698 200.767 453.871 201.103 454.05C201.441 454.226 201.705 454.468 201.894 454.777C202.086 455.083 202.182 455.463 202.182 455.915C202.182 456.325 202.068 456.709 201.84 457.067C201.612 457.425 201.29 457.692 200.873 457.868C200.456 458.041 199.937 458.127 199.315 458.127C198.41 458.127 197.715 457.919 197.23 457.502C196.745 457.082 196.456 456.472 196.361 455.671ZM204.977 458V454.987L202.355 450.842H204.05L205.734 453.674L207.385 450.842H209.05L206.418 454.997V458H204.977ZM209.101 455.671L210.507 455.534C210.592 456.006 210.763 456.353 211.02 456.574C211.281 456.796 211.63 456.906 212.07 456.906C212.535 456.906 212.885 456.809 213.12 456.613C213.357 456.415 213.476 456.184 213.476 455.92C213.476 455.751 213.426 455.607 213.325 455.49C213.227 455.37 213.055 455.266 212.807 455.178C212.638 455.119 212.252 455.015 211.65 454.865C210.875 454.673 210.332 454.437 210.019 454.157C209.58 453.763 209.36 453.283 209.36 452.717C209.36 452.352 209.462 452.012 209.668 451.696C209.876 451.377 210.174 451.135 210.561 450.969C210.952 450.803 211.422 450.72 211.972 450.72C212.871 450.72 213.546 450.917 213.999 451.311C214.454 451.704 214.694 452.23 214.716 452.888L213.271 452.951C213.209 452.583 213.076 452.32 212.871 452.16C212.669 451.997 212.365 451.916 211.958 451.916C211.538 451.916 211.209 452.002 210.971 452.175C210.818 452.285 210.742 452.434 210.742 452.619C210.742 452.788 210.813 452.933 210.957 453.054C211.139 453.207 211.582 453.366 212.285 453.532C212.988 453.698 213.507 453.871 213.842 454.05C214.181 454.226 214.445 454.468 214.633 454.777C214.825 455.083 214.921 455.463 214.921 455.915C214.921 456.325 214.808 456.709 214.58 457.067C214.352 457.425 214.03 457.692 213.613 457.868C213.196 458.041 212.677 458.127 212.055 458.127C211.15 458.127 210.455 457.919 209.97 457.502C209.485 457.082 209.196 456.472 209.101 455.671ZM217.449 458V452.053H215.325V450.842H221.013V452.053H218.894V458H217.449ZM221.651 458V450.842H226.958V452.053H223.096V453.64H226.69V454.846H223.096V456.794H227.095V458H221.651ZM228.001 458V450.842H230.164L231.463 455.725L232.747 450.842H234.915V458H233.572V452.365L232.151 458H230.76L229.344 452.365V458H228.001ZM238.573 458V450.9H240.018V456.794H243.612V458H238.573ZM244.347 458V450.842H249.655V452.053H245.792V453.64H249.386V454.846H245.792V456.794H249.791V458H244.347ZM252.543 458L249.985 450.842H251.552L253.363 456.14L255.116 450.842H256.65L254.086 458H252.543ZM257.087 458V450.842H262.395V452.053H258.532V453.64H262.126V454.846H258.532V456.794H262.531V458H257.087ZM263.496 458V450.9H264.941V456.794H268.535V458H263.496ZM273.955 458V456.56H271.026V455.358L274.131 450.812H275.284V455.354H276.172V456.56H275.284V458H273.955ZM273.955 455.354V452.907L272.31 455.354H273.955Z"  class="server__status-text"/>
<path d="M207.633 255.676H208.797C209.573 255.676 210.098 255.706 210.371 255.766C210.647 255.826 210.871 255.979 211.043 256.227C211.217 256.471 211.305 256.863 211.305 257.402C211.305 257.895 211.243 258.225 211.121 258.395C210.999 258.564 210.758 258.665 210.398 258.699C210.724 258.78 210.943 258.888 211.055 259.024C211.167 259.159 211.236 259.284 211.262 259.399C211.29 259.51 211.305 259.822 211.305 260.332V262H209.777V259.899C209.777 259.56 209.75 259.35 209.695 259.27C209.643 259.189 209.504 259.149 209.277 259.149V262H207.633V255.676ZM209.277 256.758V258.164C209.462 258.164 209.591 258.139 209.664 258.09C209.74 258.038 209.777 257.872 209.777 257.594V257.246C209.777 257.046 209.741 256.914 209.668 256.852C209.598 256.789 209.467 256.758 209.277 256.758ZM215.703 259.379C215.703 260.014 215.688 260.465 215.656 260.731C215.628 260.994 215.534 261.234 215.375 261.453C215.219 261.672 215.007 261.84 214.738 261.957C214.47 262.074 214.158 262.133 213.801 262.133C213.462 262.133 213.158 262.078 212.887 261.969C212.618 261.857 212.402 261.69 212.238 261.469C212.074 261.247 211.977 261.007 211.945 260.746C211.914 260.486 211.898 260.03 211.898 259.379V258.297C211.898 257.662 211.913 257.212 211.941 256.949C211.973 256.684 212.066 256.441 212.223 256.223C212.382 256.004 212.595 255.836 212.863 255.719C213.132 255.602 213.444 255.543 213.801 255.543C214.139 255.543 214.443 255.599 214.711 255.711C214.982 255.82 215.199 255.986 215.363 256.207C215.527 256.428 215.625 256.669 215.656 256.93C215.688 257.19 215.703 257.646 215.703 258.297V259.379ZM214.059 257.301C214.059 257.007 214.042 256.819 214.008 256.738C213.977 256.655 213.91 256.613 213.809 256.613C213.723 256.613 213.656 256.647 213.609 256.715C213.565 256.78 213.543 256.975 213.543 257.301V260.254C213.543 260.621 213.557 260.848 213.586 260.934C213.617 261.02 213.688 261.063 213.797 261.063C213.909 261.063 213.98 261.013 214.012 260.914C214.043 260.815 214.059 260.58 214.059 260.207V257.301ZM216.32 255.676H217.961C218.479 255.676 218.871 255.716 219.137 255.797C219.405 255.878 219.621 256.042 219.785 256.289C219.949 256.534 220.031 256.93 220.031 257.477C220.031 257.846 219.973 258.104 219.855 258.25C219.741 258.396 219.513 258.508 219.172 258.586C219.552 258.672 219.81 258.815 219.945 259.016C220.081 259.214 220.148 259.518 220.148 259.93V260.516C220.148 260.943 220.099 261.259 220 261.465C219.904 261.671 219.749 261.811 219.535 261.887C219.322 261.962 218.884 262 218.223 262H216.32V255.676ZM217.965 256.758V258.164C218.035 258.162 218.09 258.16 218.129 258.16C218.29 258.16 218.393 258.121 218.438 258.043C218.482 257.962 218.504 257.734 218.504 257.359C218.504 257.162 218.486 257.024 218.449 256.945C218.413 256.865 218.365 256.814 218.305 256.793C218.247 256.772 218.134 256.76 217.965 256.758ZM217.965 259.149V260.918C218.197 260.91 218.344 260.874 218.406 260.809C218.471 260.744 218.504 260.583 218.504 260.328V259.738C218.504 259.468 218.475 259.303 218.418 259.246C218.361 259.189 218.21 259.156 217.965 259.149ZM220.742 255.676H223.484V256.941H222.387V258.141H223.414V259.344H222.387V260.734H223.594V262H220.742V255.676ZM224.07 255.676H225.234C226.01 255.676 226.535 255.706 226.809 255.766C227.085 255.826 227.309 255.979 227.48 256.227C227.655 256.471 227.742 256.863 227.742 257.402C227.742 257.895 227.681 258.225 227.559 258.395C227.436 258.564 227.195 258.665 226.836 258.699C227.161 258.78 227.38 258.888 227.492 259.024C227.604 259.159 227.673 259.284 227.699 259.399C227.728 259.51 227.742 259.822 227.742 260.332V262H226.215V259.899C226.215 259.56 226.188 259.35 226.133 259.27C226.081 259.189 225.941 259.149 225.715 259.149V262H224.07V255.676ZM225.715 256.758V258.164C225.9 258.164 226.029 258.139 226.102 258.09C226.177 258.038 226.215 257.872 226.215 257.594V257.246C226.215 257.046 226.178 256.914 226.105 256.852C226.035 256.789 225.905 256.758 225.715 256.758ZM231.695 255.676V256.941H230.719V262H229.074V256.941H228.102V255.676H231.695ZM232.41 260.711V262H231.219V260.711H232.41ZM236.367 257.59H234.84V257.121C234.84 256.902 234.82 256.763 234.781 256.703C234.742 256.643 234.677 256.613 234.586 256.613C234.487 256.613 234.411 256.654 234.359 256.734C234.31 256.815 234.285 256.938 234.285 257.102C234.285 257.313 234.314 257.471 234.371 257.578C234.426 257.685 234.581 257.814 234.836 257.965C235.568 258.4 236.029 258.757 236.219 259.035C236.409 259.314 236.504 259.763 236.504 260.383C236.504 260.833 236.451 261.165 236.344 261.379C236.24 261.593 236.036 261.772 235.734 261.918C235.432 262.061 235.081 262.133 234.68 262.133C234.24 262.133 233.863 262.05 233.551 261.883C233.241 261.716 233.038 261.504 232.941 261.246C232.845 260.988 232.797 260.622 232.797 260.149V259.734H234.324V260.504C234.324 260.741 234.345 260.893 234.387 260.961C234.431 261.029 234.508 261.063 234.617 261.063C234.727 261.063 234.807 261.02 234.859 260.934C234.914 260.848 234.941 260.72 234.941 260.551C234.941 260.178 234.891 259.935 234.789 259.82C234.685 259.706 234.428 259.514 234.02 259.246C233.611 258.975 233.34 258.779 233.207 258.656C233.074 258.534 232.964 258.365 232.875 258.149C232.789 257.932 232.746 257.656 232.746 257.32C232.746 256.836 232.807 256.482 232.93 256.258C233.055 256.034 233.255 255.859 233.531 255.734C233.807 255.607 234.141 255.543 234.531 255.543C234.958 255.543 235.322 255.612 235.621 255.75C235.923 255.888 236.122 256.063 236.219 256.274C236.318 256.482 236.367 256.837 236.367 257.34V257.59ZM237.023 255.676H239.766V256.941H238.668V258.141H239.695V259.344H238.668V260.734H239.875V262H237.023V255.676ZM244.023 255.676V262H242.582L241.727 259.125V262H240.352V255.676H241.727L242.648 258.524V255.676H244.023ZM248 255.676V256.941H247.023V262H245.379V256.941H244.406V255.676H248ZM248.375 255.676H251.117V256.941H250.02V258.141H251.047V259.344H250.02V260.734H251.227V262H248.375V255.676ZM255.188 257.59H253.66V257.121C253.66 256.902 253.641 256.763 253.602 256.703C253.562 256.643 253.497 256.613 253.406 256.613C253.307 256.613 253.232 256.654 253.18 256.734C253.13 256.815 253.105 256.938 253.105 257.102C253.105 257.313 253.134 257.471 253.191 257.578C253.246 257.685 253.401 257.814 253.656 257.965C254.388 258.4 254.849 258.757 255.039 259.035C255.229 259.314 255.324 259.763 255.324 260.383C255.324 260.833 255.271 261.165 255.164 261.379C255.06 261.593 254.857 261.772 254.555 261.918C254.253 262.061 253.901 262.133 253.5 262.133C253.06 262.133 252.684 262.05 252.371 261.883C252.061 261.716 251.858 261.504 251.762 261.246C251.665 260.988 251.617 260.622 251.617 260.149V259.734H253.145V260.504C253.145 260.741 253.165 260.893 253.207 260.961C253.251 261.029 253.328 261.063 253.438 261.063C253.547 261.063 253.628 261.02 253.68 260.934C253.734 260.848 253.762 260.72 253.762 260.551C253.762 260.178 253.711 259.935 253.609 259.82C253.505 259.706 253.249 259.514 252.84 259.246C252.431 258.975 252.16 258.779 252.027 258.656C251.895 258.534 251.784 258.365 251.695 258.149C251.609 257.932 251.566 257.656 251.566 257.32C251.566 256.836 251.628 256.482 251.75 256.258C251.875 256.034 252.076 255.859 252.352 255.734C252.628 255.607 252.961 255.543 253.352 255.543C253.779 255.543 254.142 255.612 254.441 255.75C254.743 255.888 254.943 256.063 255.039 256.274C255.138 256.482 255.188 256.837 255.188 257.34V257.59ZM256.848 260.711V262H255.656V260.711H256.848ZM257.32 255.676H260.062V256.941H258.965V258.141H259.992V259.344H258.965V260.734H260.172V262H257.32V255.676ZM264.387 255.676V259.902C264.387 260.382 264.371 260.719 264.34 260.914C264.309 261.107 264.216 261.306 264.062 261.512C263.909 261.715 263.706 261.87 263.453 261.977C263.203 262.081 262.908 262.133 262.566 262.133C262.189 262.133 261.855 262.07 261.566 261.945C261.277 261.82 261.061 261.658 260.918 261.457C260.775 261.257 260.69 261.046 260.664 260.824C260.638 260.6 260.625 260.132 260.625 259.418V255.676H262.27V260.418C262.27 260.694 262.284 260.871 262.312 260.949C262.344 261.025 262.405 261.063 262.496 261.063C262.6 261.063 262.667 261.021 262.695 260.938C262.727 260.852 262.742 260.651 262.742 260.336V255.676H264.387Z"  class="server__text"/>
<path d="M231.76 215.798L227.925 249H217.138C216.153 243.9 215.285 238.104 214.533 231.609C214.191 234.385 213.392 240.182 212.134 249H201.408L197.553 215.798H205.94L206.822 227.385L207.725 238.562C208.039 232.778 208.832 225.191 210.104 215.798H219.086C219.209 216.769 219.523 220.419 220.029 226.749L220.973 239.361C221.451 231.336 222.251 223.482 223.372 215.798H231.76ZM233.482 215.798H247.879V222.442H242.116V228.738H247.51V235.055H242.116V242.356H248.453V249H233.482V215.798ZM250.955 215.798H259.568C262.289 215.798 264.347 216.01 265.741 216.434C267.149 216.857 268.284 217.719 269.146 219.018C270.007 220.303 270.438 222.381 270.438 225.252C270.438 227.193 270.13 228.547 269.515 229.313C268.913 230.078 267.717 230.666 265.926 231.076C267.922 231.527 269.275 232.279 269.986 233.332C270.697 234.371 271.053 235.971 271.053 238.131V241.207C271.053 243.449 270.793 245.11 270.273 246.191C269.768 247.271 268.954 248.009 267.833 248.405C266.712 248.802 264.415 249 260.942 249H250.955V215.798ZM259.589 221.479V228.861C259.958 228.848 260.245 228.841 260.45 228.841C261.298 228.841 261.838 228.636 262.07 228.226C262.303 227.802 262.419 226.606 262.419 224.637C262.419 223.598 262.323 222.873 262.132 222.463C261.94 222.039 261.688 221.773 261.373 221.663C261.072 221.554 260.478 221.492 259.589 221.479ZM259.589 234.029V243.319C260.806 243.278 261.578 243.087 261.906 242.745C262.248 242.403 262.419 241.563 262.419 240.223V237.126C262.419 235.704 262.269 234.843 261.968 234.542C261.667 234.241 260.874 234.07 259.589 234.029Z"  class="server__text"/>
<path d="M199.535 145.154H192.662V143.045C192.662 142.061 192.574 141.434 192.398 141.164C192.223 140.895 191.93 140.76 191.52 140.76C191.074 140.76 190.734 140.941 190.5 141.305C190.277 141.668 190.166 142.219 190.166 142.957C190.166 143.906 190.295 144.621 190.553 145.102C190.799 145.582 191.496 146.162 192.645 146.842C195.938 148.799 198.012 150.404 198.867 151.658C199.723 152.912 200.15 154.934 200.15 157.723C200.15 159.75 199.91 161.244 199.43 162.205C198.961 163.166 198.047 163.975 196.688 164.631C195.328 165.275 193.746 165.598 191.941 165.598C189.961 165.598 188.268 165.223 186.861 164.473C185.467 163.723 184.553 162.768 184.119 161.607C183.686 160.447 183.469 158.801 183.469 156.668V154.805H190.342V158.268C190.342 159.334 190.436 160.02 190.623 160.324C190.822 160.629 191.168 160.781 191.66 160.781C192.152 160.781 192.516 160.588 192.75 160.201C192.996 159.814 193.119 159.24 193.119 158.478C193.119 156.803 192.891 155.707 192.434 155.191C191.965 154.676 190.811 153.814 188.971 152.607C187.131 151.389 185.912 150.504 185.314 149.953C184.717 149.402 184.219 148.641 183.82 147.668C183.434 146.695 183.24 145.453 183.24 143.941C183.24 141.762 183.516 140.168 184.066 139.16C184.629 138.152 185.531 137.367 186.773 136.805C188.016 136.23 189.516 135.943 191.273 135.943C193.195 135.943 194.83 136.254 196.178 136.875C197.537 137.496 198.434 138.281 198.867 139.23C199.312 140.168 199.535 141.768 199.535 144.029V145.154ZM202.488 136.541H214.828V142.236H209.889V147.633H214.512V153.047H209.889V159.305H215.32V165H202.488V136.541ZM217.465 136.541H222.703C226.195 136.541 228.557 136.676 229.787 136.945C231.029 137.215 232.037 137.906 232.811 139.02C233.596 140.121 233.988 141.885 233.988 144.311C233.988 146.525 233.713 148.014 233.162 148.775C232.611 149.537 231.527 149.994 229.91 150.146C231.375 150.51 232.359 150.996 232.863 151.605C233.367 152.215 233.678 152.777 233.795 153.293C233.924 153.797 233.988 155.197 233.988 157.494V165H227.115V155.543C227.115 154.02 226.992 153.076 226.746 152.713C226.512 152.35 225.885 152.168 224.865 152.168V165H217.465V136.541ZM224.865 141.41V147.738C225.697 147.738 226.277 147.627 226.605 147.404C226.945 147.17 227.115 146.426 227.115 145.172V143.607C227.115 142.705 226.951 142.113 226.623 141.832C226.307 141.551 225.721 141.41 224.865 141.41ZM254.449 136.541L250.688 165H239.455L235.184 136.541H242.988C243.891 144.381 244.535 151.008 244.922 156.422C245.309 150.949 245.713 146.086 246.135 141.832L246.645 136.541H254.449ZM255.715 136.541H268.055V142.236H263.115V147.633H267.738V153.047H263.115V159.305H268.547V165H255.715V136.541ZM270.691 136.541H275.93C279.422 136.541 281.783 136.676 283.014 136.945C284.256 137.215 285.264 137.906 286.037 139.02C286.822 140.121 287.215 141.885 287.215 144.311C287.215 146.525 286.939 148.014 286.389 148.775C285.838 149.537 284.754 149.994 283.137 150.146C284.602 150.51 285.586 150.996 286.09 151.605C286.594 152.215 286.904 152.777 287.021 153.293C287.15 153.797 287.215 155.197 287.215 157.494V165H280.342V155.543C280.342 154.02 280.219 153.076 279.973 152.713C279.738 152.35 279.111 152.168 278.092 152.168V165H270.691V136.541ZM278.092 141.41V147.738C278.924 147.738 279.504 147.627 279.832 147.404C280.172 147.17 280.342 146.426 280.342 145.172V143.607C280.342 142.705 280.178 142.113 279.85 141.832C279.533 141.551 278.947 141.41 278.092 141.41Z" class="server__text-bg"/>
</svg>