<svg width="0" height="0" viewBox="0 0 588 584" fill="none" xmlns="http://www.w3.org/2000/svg" class="terminal__main">
<path d="M472 267.5V321.5H498.014C489.857 388.287 448.778 444.904 391.5 474.63V479.126C418.017 465.705 441.206 446.663 459.5 423.568C460.563 422.225 461.61 420.869 462.64 419.5C488.295 385.388 503.5 342.97 503.5 297C503.5 262.083 494.728 229.215 479.266 200.479C477.954 198.04 476.593 195.631 475.186 193.253C440.306 134.314 376.613 94.4445 303.5 93.0384C302.17 93.0128 300.836 93 299.5 93C298.097 93 296.698 93.0142 295.302 93.0423C253.868 93.8787 215.465 107.069 183.628 129.08C181.66 130.44 179.716 131.835 177.799 133.262C128.973 169.613 96.96 227.288 95.5487 292.5L95.6016 303.5C96.8889 344.627 110.349 382.686 132.5 414.192C133.159 415.13 133.826 416.061 134.5 416.987C152.278 441.392 175.338 461.702 202 476.236V471.666C142.616 438.446 101.913 375.82 99.6036 303.5C99.5347 301.342 99.5 299.175 99.5 297C99.5 295.496 99.5166 293.996 99.5496 292.5C100.957 228.73 132.213 172.319 179.9 136.686C181.84 135.236 183.808 133.82 185.802 132.44C217.018 110.831 254.681 97.8757 295.321 97.0428C296.711 97.0143 298.104 97 299.5 97C300.836 97 302.17 97.0131 303.5 97.0392C375.036 98.4425 437.366 137.405 471.583 195.021C473.012 197.426 474.391 199.863 475.72 202.332C486.452 222.266 493.899 244.23 497.34 267.5H472Z M515.5 297C515.5 345.815 499.307 390.847 472 427.019L462.64 419.5C461.61 420.869 460.563 422.225 459.5 423.568L469.008 430.891L474.623 435.217C504.435 397.299 522.217 349.476 522.217 297.5C522.217 176.294 421.316 74.5 299.217 74.5C176.057 74.5 76.2169 174.34 76.2169 297.5C76.2169 347.287 92.5324 393.263 120.108 430.373L125.653 425.216L134.5 416.987C133.826 416.061 133.159 415.13 132.5 414.192L123.5 422.249C99.4875 388.568 84.9023 347.701 83.5959 303.5C83.5321 301.341 83.5 299.174 83.5 297C83.5 295.606 83.5132 294.215 83.5395 292.827C83.5416 292.718 83.5437 292.609 83.5459 292.5C84.9671 222.961 119.251 161.493 171.5 122.994C173.346 121.634 175.214 120.302 177.104 119C210.815 95.7759 251.449 81.8803 295.28 81.0404C296.683 81.0135 298.09 81 299.5 81C300.836 81 302.17 81.0121 303.5 81.0363C381.342 82.45 449.127 125.042 485.991 187.949C487.338 190.247 488.643 192.571 489.906 194.922C506.236 225.319 515.5 260.078 515.5 297Z M299.5 81C298.09 81 296.683 81.0135 295.28 81.0404C295.282 85.5013 295.289 89.5569 295.302 93.0423C296.698 93.0142 298.097 93 299.5 93C300.836 93 302.17 93.0128 303.5 93.0384V81.0363C302.17 81.0121 300.836 81 299.5 81Z M177.104 119C175.214 120.302 173.346 121.634 171.5 122.994L177.799 133.262C179.716 131.835 181.66 130.44 183.628 129.08L177.104 119Z M190.695 140L185.802 132.44L179.9 136.686L184.627 144.392C186.62 142.889 188.643 141.425 190.695 140Z M83.5395 292.827C83.5132 294.215 83.5 295.606 83.5 297C83.5 299.174 83.5321 301.341 83.5959 303.5H95.6016C95.534 301.342 95.5 299.175 95.5 297C95.5 295.496 95.5163 293.996 95.5487 292.5H83.5459C83.5437 292.609 83.5416 292.718 83.5395 292.827Z M108.5 297C108.5 295.496 108.517 293.996 108.552 292.5H99.5496C99.5166 293.996 99.5 295.496 99.5 297C99.5 299.175 99.5347 301.342 99.6036 303.5H108.609C108.536 301.342 108.5 299.175 108.5 297Z M303.5 0H295.5C295.462 7.95611 295.422 17.7027 295.385 28.0308C193.448 29.5594 105.253 87.7899 60.9395 172.583L41 162.5L35 174.5L55.1889 184.27C45.3592 205.538 38.2249 228.307 34.2241 252.138L1.5 247L0 256L32.8689 261.144C32.346 265.07 31.9077 269.022 31.556 273H7V322.5H31.6929C35.3637 361.539 47.3773 398.151 65.9322 430.536L14 471L21.5 481.5L72.09 440.751C76.6203 447.903 81.4787 454.826 86.644 461.5L91.7914 456.712C86.7434 450.157 81.9987 443.356 77.5785 436.33L81.5 433.171C85.8415 440.107 90.5047 446.821 95.4689 453.292L104.298 445.08C73.0477 403.949 54.5 352.64 54.5 297C54.5 161.69 164.19 52 299.5 52C434.81 52 544.5 161.69 544.5 297C544.5 354.235 524.874 406.886 491.985 448.59L501.492 455.914C502.642 454.455 503.775 452.984 504.893 451.5L508.95 454.425C507.801 455.952 506.635 457.465 505.454 458.965L511 463.237C512.227 461.679 513.436 460.107 514.629 458.521L525 466L527.5 462L517.232 455C545.434 415.743 563.047 369.711 567.399 321.5H588V273.5H567.488C566.501 262.101 564.804 250.905 562.44 239.957L583 235.5L580 222.5L559.464 227.604C546.203 177.801 519.011 133.679 482.315 99.6665L533.5 44L529 40L477.894 95.6593C475.356 93.4088 472.775 91.2056 470.153 89.0509L489 68L485.5 64.5C480.599 70.1007 472.578 79.2477 466.514 86.1134C421.605 50.4992 365.055 28.9264 303.5 28.0291V0ZM469.777 104.5C467.275 102.285 464.729 100.118 462.141 98L465.479 94.2711C468.082 96.4042 470.642 98.5864 473.159 100.816L469.777 104.5ZM547.813 230.5C535.129 183.015 509.185 140.945 474.192 108.5L477.576 104.819C513.279 137.918 539.743 180.842 552.668 229.293L547.813 230.5ZM555.44 273.5C554.486 262.97 552.896 252.624 550.71 242.5L555.597 241.44C557.857 251.908 559.492 262.608 560.46 273.5H555.44ZM507.484 448C533.799 411.816 550.902 368.501 555.347 321.5H560.37C555.912 369.568 538.469 413.871 511.582 450.866L507.484 448ZM44.7291 263C44.2912 266.314 43.9163 269.648 43.6058 273H38.5845C38.9126 269.387 39.3141 265.796 39.7873 262.227L44.7291 263ZM65.9948 189.5C56.6706 209.72 49.8955 231.357 46.0814 254L41.1408 253.224C45.0327 230.086 51.9575 207.978 61.4923 187.321L65.9948 189.5ZM71.6514 178L67.1881 175.743C110.342 93.2346 196.163 36.5681 295.362 35.032C295.356 36.6928 295.351 38.3614 295.346 40.0329C198.104 41.5738 113.978 97.1233 71.6514 178ZM38.7251 322.5H43.7492C46.4769 350.193 53.6005 376.596 64.4126 401L60 403.386C48.8224 378.26 41.4827 351.05 38.7251 322.5ZM71.5123 426.188L75.5 423.081C73.0827 418.795 70.7849 414.434 68.6109 410L64.2671 412.5C66.5505 417.142 68.9672 421.706 71.5123 426.188ZM458.5 95.0755C415.729 61.35 361.983 40.9228 303.5 40.0305V35.0299C363.274 35.9245 418.197 56.8364 461.863 91.3601C460.164 93.2667 458.952 94.6093 458.5 95.0755Z M463.476 199C464.952 201.465 466.374 203.965 467.741 206.5L475.72 202.332L471.583 195.021L463.476 199Z M485.991 187.949L475.186 193.253C476.593 195.631 477.954 198.04 479.266 200.479L489.906 194.922C488.643 192.571 487.338 190.247 485.991 187.949Z M295.5 106.041C296.83 106.014 298.163 106 299.5 106C300.837 106 302.17 106.014 303.5 106.041V97.0392C302.17 97.0131 300.836 97 299.5 97C298.104 97 296.711 97.0143 295.321 97.0428C295.356 102.676 295.413 106.043 295.5 106.041Z M202 584H391.5V406H202V584Z" class="terminal__circle"/>
<path d="M83.5 297C83.5 343.691 98.3147 386.922 123.5 422.249M83.5 297C83.5 299.174 83.5321 301.341 83.5959 303.5M83.5 297C83.5 295.606 83.5132 294.215 83.5395 292.827M462.64 419.5C488.295 385.388 503.5 342.97 503.5 297C503.5 262.083 494.728 229.215 479.266 200.479M462.64 419.5L472 427.019C499.307 390.847 515.5 345.815 515.5 297C515.5 260.078 506.236 225.319 489.906 194.922M462.64 419.5C461.61 420.869 460.563 422.225 459.5 423.568M459.5 423.568L469.008 430.891L474.623 435.217M459.5 423.568C441.206 446.663 418.017 465.705 391.5 479.126V474.63C448.778 444.904 489.857 388.287 498.014 321.5H472V267.5H497.34C493.899 244.23 486.452 222.266 475.72 202.332M185 145L184.627 144.392M171.5 122.994C173.346 121.634 175.214 120.302 177.104 119M171.5 122.994L177.799 133.262M171.5 122.994C119.251 161.493 84.9671 222.961 83.5459 292.5M171.5 122.994C119.169 161.553 84.8598 223.154 83.5395 292.827M177.104 119C210.815 95.7759 251.449 81.8803 295.28 81.0404M177.104 119L183.628 129.08M83.5459 292.5H95.5487M83.5459 292.5C83.5437 292.609 83.5416 292.718 83.5395 292.827M83.5959 303.5H95.6016M83.5959 303.5C84.9023 347.701 99.4875 388.568 123.5 422.249M134.5 416.987C133.826 416.061 133.159 415.13 132.5 414.192M134.5 416.987L125.653 425.216L120.108 430.373M134.5 416.987C152.278 441.392 175.338 461.702 202 476.236V471.666C142.616 438.446 101.913 375.82 99.6036 303.5M123.5 422.249L132.5 414.192M132.5 414.192C110.349 382.686 96.8889 344.627 95.6016 303.5M75.5 423.081C74.1708 424.116 72.8415 425.152 71.5123 426.188M75.5 423.081C73.0827 418.795 70.7849 414.434 68.6109 410L64.2671 412.5C66.5505 417.142 68.9672 421.706 71.5123 426.188M75.5 423.081L71.5123 426.188M295.28 81.0404C296.683 81.0135 298.09 81 299.5 81C300.836 81 302.17 81.0121 303.5 81.0363M295.28 81.0404C295.282 85.5013 295.289 89.5569 295.302 93.0423M295.302 93.0423C296.698 93.0142 298.097 93 299.5 93C300.836 93 302.17 93.0128 303.5 93.0384M295.302 93.0423C253.868 93.8787 215.465 107.069 183.628 129.08M295.321 97.0428C295.356 102.676 295.413 106.043 295.5 106.041C296.83 106.014 298.163 106 299.5 106C300.837 106 302.17 106.014 303.5 106.041V97.0392M295.321 97.0428C296.711 97.0143 298.104 97 299.5 97C300.836 97 302.17 97.0131 303.5 97.0392M295.321 97.0428C254.681 97.8757 217.018 110.831 185.802 132.44M303.5 97.0392C375.036 98.4425 437.366 137.405 471.583 195.021M303.5 81.0363C381.342 82.45 449.127 125.042 485.991 187.949M303.5 81.0363V93.0384M104.298 445.08L95.4689 453.292C90.5047 446.821 85.8415 440.107 81.5 433.171L77.5785 436.33C81.9987 443.356 86.7434 450.157 91.7914 456.712L86.644 461.5C81.4787 454.826 76.6203 447.903 72.09 440.751L21.5 481.5L14 471L65.9322 430.536C47.3773 398.151 35.3637 361.539 31.6929 322.5H7V273H31.556C31.9077 269.022 32.346 265.07 32.8689 261.144L0 256L1.5 247L34.2241 252.138C38.2249 228.307 45.3592 205.538 55.1889 184.27L35 174.5L41 162.5L60.9395 172.583C105.253 87.7899 193.448 29.5594 295.385 28.0308C295.422 17.7027 295.462 7.95611 295.5 0H303.5V28.0291C365.055 28.9264 421.605 50.4992 466.514 86.1134C472.578 79.2477 480.599 70.1007 485.5 64.5L489 68L470.153 89.0509C472.775 91.2056 475.356 93.4088 477.894 95.6593L529 40L533.5 44L482.315 99.6665C519.011 133.679 546.203 177.801 559.464 227.604L580 222.5L583 235.5L562.44 239.957C564.804 250.905 566.501 262.101 567.488 273.5H588V321.5H567.399C563.047 369.711 545.434 415.743 517.232 455L527.5 462L525 466L514.629 458.521C513.436 460.107 512.227 461.679 511 463.237L505.454 458.965C506.635 457.465 507.801 455.952 508.95 454.425L504.893 451.5C503.775 452.984 502.642 454.455 501.492 455.914L491.985 448.59M104.298 445.08C73.0477 403.949 54.5 352.64 54.5 297C54.5 161.69 164.19 52 299.5 52C434.81 52 544.5 161.69 544.5 297C544.5 354.235 524.874 406.886 491.985 448.59M104.298 445.08L120.108 430.373M120.108 430.373C92.5324 393.263 76.2169 347.287 76.2169 297.5C76.2169 174.34 176.057 74.5 299.217 74.5C421.316 74.5 522.217 176.294 522.217 297.5C522.217 349.476 504.435 397.299 474.623 435.217M491.985 448.59L474.623 435.217M99.5496 292.5C99.5166 293.996 99.5 295.496 99.5 297C99.5 299.175 99.5347 301.342 99.6036 303.5M99.5496 292.5H108.552C108.517 293.996 108.5 295.496 108.5 297C108.5 299.175 108.536 301.342 108.609 303.5H99.6036M99.5496 292.5C100.957 228.73 132.213 172.319 179.9 136.686M95.5487 292.5C95.5163 293.996 95.5 295.496 95.5 297C95.5 299.175 95.534 301.342 95.6016 303.5M95.5487 292.5L95.6016 303.5M95.5487 292.5C96.96 227.288 128.973 169.613 177.799 133.262M183.628 129.08C181.66 130.44 179.716 131.835 177.799 133.262M185.802 132.44L190.695 140C188.643 141.425 186.62 142.889 184.627 144.392M185.802 132.44C183.808 133.82 181.84 135.236 179.9 136.686M185.802 132.44L179.9 136.686M179.9 136.686L184.627 144.392M485.991 187.949L475.186 193.253M485.991 187.949C487.338 190.247 488.643 192.571 489.906 194.922M475.186 193.253C476.593 195.631 477.954 198.04 479.266 200.479M475.186 193.253C440.306 134.314 376.613 94.4445 303.5 93.0384M471.583 195.021L463.476 199C464.952 201.465 466.374 203.965 467.741 206.5L475.72 202.332M471.583 195.021C473.012 197.426 474.391 199.863 475.72 202.332M471.583 195.021L475.72 202.332M479.266 200.479L489.906 194.922M458.5 95.0755C415.729 61.35 361.983 40.9228 303.5 40.0305V35.0299C363.274 35.9245 418.197 56.8364 461.863 91.3601C460.164 93.2667 458.952 94.6093 458.5 95.0755ZM462.141 98C464.729 100.118 467.275 102.285 469.777 104.5L473.159 100.816C470.642 98.5864 468.082 96.4042 465.479 94.2711L462.141 98ZM474.192 108.5C509.185 140.945 535.129 183.015 547.813 230.5L552.668 229.293C539.743 180.842 513.279 137.918 477.576 104.819L474.192 108.5ZM550.71 242.5C552.896 252.624 554.486 262.97 555.44 273.5H560.46C559.492 262.608 557.857 251.908 555.597 241.44L550.71 242.5ZM555.347 321.5C550.902 368.501 533.799 411.816 507.484 448L511.582 450.866C538.469 413.871 555.912 369.568 560.37 321.5H555.347ZM43.7492 322.5H38.7251C41.4827 351.05 48.8224 378.26 60 403.386L64.4126 401C53.6005 376.596 46.4769 350.193 43.7492 322.5ZM43.6058 273C43.9163 269.648 44.2912 266.314 44.7291 263L39.7873 262.227C39.3141 265.796 38.9126 269.387 38.5845 273H43.6058ZM46.0814 254C49.8955 231.357 56.6706 209.72 65.9948 189.5L61.4923 187.321C51.9575 207.978 45.0327 230.086 41.1408 253.224L46.0814 254ZM71.6514 178L67.1881 175.743C110.342 93.2346 196.163 36.5681 295.362 35.032C295.356 36.6928 295.351 38.3614 295.346 40.0329C198.104 41.5738 113.978 97.1233 71.6514 178Z M108.5 297C108.5 191.237 194.237 105.5 300 105.5M108.5 297C108.5 365.482 144.446 425.568 198.5 459.419M108.5 297C108.5 366.407 143.224 425.832 198.5 459.419M300 105.5C301.337 105.5 298.67 105.473 300 105.5ZM300 105.5C394.294 105.5 472.691 173.767 488.58 263.5H469V325.5H489.318M489.318 325.5C489.43 324.762 489.215 326.241 489.318 325.5ZM489.318 325.5C480.956 385.259 444.647 435.855 394.5 464V402.5H198.5V459.419M198.5 459.419C199.23 459.876 197.763 458.971 198.5 459.419Z M208.5 422V445.5H293V422H208.5Z M208.5 506.5V483H293V506.5H208.5Z M208.5 475.5V452H293V475.5H208.5Z M202 584H391.5V406H202V584ZM208.5 445.5V422H293V445.5H208.5ZM299.5 527.5V422H384.5V527.5H299.5Z" class="terminal__border"/>
<path d="M479.5 280V283H476.5V290H479.5V293H496.5V280H479.5Z" class="terminal__rectangle terminal__rectangle--hover"/>
<path d="M479.5 298V296H493.5V300H496.5V305H493.5V309H479.5V307H476.5V304H479.5V301H476.5V298H479.5Z" class="terminal__rectangle terminal__rectangle--hover"/>
<path d="M544.5 297C544.5 161.69 434.81 52 299.5 52C164.19 52 54.5 161.69 54.5 297C54.5 352.64 73.0477 403.949 104.298 445.08L120.108 430.373C92.5324 393.263 76.2169 347.287 76.2169 297.5C76.2169 174.34 176.057 74.5 299.217 74.5C421.316 74.5 522.217 176.294 522.217 297.5C522.217 349.476 504.435 397.299 474.623 435.217L491.985 448.59C524.874 406.886 544.5 354.235 544.5 297Z" class="terminal__status"/>
<path d="M320.515 64.6409C320.41 66.5977 319.973 68.2949 319.202 69.7324C318.432 71.17 317.379 72.2547 316.044 72.9866C314.718 73.7191 313.222 74.0408 311.556 73.9519C309.909 73.8639 308.46 73.3895 307.21 72.5287C305.96 71.6679 305.019 70.4858 304.387 68.9825C303.756 67.4702 303.487 65.7581 303.58 63.8463L303.632 62.8633C303.737 60.9064 304.179 59.2049 304.959 57.7588C305.749 56.304 306.806 55.215 308.132 54.4917C309.467 53.7597 310.963 53.438 312.62 53.5264C314.276 53.6148 315.725 54.0938 316.965 54.9632C318.215 55.8241 319.151 57.0196 319.772 58.5496C320.403 60.0711 320.666 61.8057 320.562 63.7535L320.515 64.6409ZM316.413 63.5182C316.524 61.434 316.235 59.8303 315.547 58.7074C314.858 57.5845 313.822 56.9861 312.439 56.9122C311.064 56.8388 309.975 57.3192 309.172 58.3534C308.369 59.3784 307.907 60.9237 307.788 62.9893L307.736 63.9586C307.628 65.9883 307.917 67.5828 308.603 68.7421C309.29 69.9015 310.334 70.5186 311.736 70.5934C313.11 70.6668 314.195 70.1861 314.989 69.1515C315.784 68.1078 316.241 66.5531 316.361 64.4875L316.413 63.5182Z M344.246 77.7533L340.202 77.0669L334.522 62.8178L332.331 75.7308L328.287 75.0444L331.618 55.4189L335.662 56.1053L341.351 70.3836L343.547 57.4437L347.577 58.1278L344.246 77.7533Z M357.374 77.6457L365.759 80.0001L364.868 83.1724L352.534 79.7092L357.916 60.5441L361.865 61.6529L357.374 77.6457Z M376.481 87.2901L372.634 85.8679L379.536 67.1966L383.384 68.6189L376.481 87.2901Z M399.862 97.6108L396.157 95.8502L394.568 80.5934L388.946 92.4231L385.241 90.6625L393.786 72.6834L397.49 74.4439L399.08 89.7313L404.714 77.8769L408.406 79.6316L399.862 97.6108Z M422.024 100.642L415.308 96.5308L412.524 101.079L420.407 105.903L418.687 108.714L407.306 101.748L417.698 84.7693L429.055 91.7212L427.321 94.5548L419.462 89.7441L416.985 93.7905L423.702 97.9016L422.024 100.642Z" class="terminal__online"/>
<path d="M66.9627 281.595C68.922 281.632 70.6334 282.01 72.0969 282.729C73.5605 283.449 74.6813 284.463 75.4594 285.772C76.2377 287.072 76.6114 288.556 76.5807 290.223C76.5503 291.873 76.1267 293.337 75.31 294.617C74.4934 295.896 73.3449 296.878 71.8646 297.562C70.3751 298.245 68.6735 298.574 66.7596 298.548L65.7754 298.53C63.8161 298.493 62.1002 298.111 60.6277 297.382C59.1462 296.643 58.021 295.624 57.2518 294.325C56.4737 293.016 56.1 291.532 56.1305 289.874C56.1611 288.215 56.5892 286.751 57.4148 285.481C58.2315 284.201 59.3936 283.224 60.9011 282.55C62.3996 281.867 64.124 281.543 66.0742 281.579L66.9627 281.595ZM65.9839 285.734C63.897 285.696 62.3044 286.04 61.2062 286.768C60.108 287.495 59.5461 288.551 59.5206 289.936C59.4952 291.312 60.0133 292.384 61.0749 293.151C62.1273 293.918 63.6878 294.325 65.7563 294.372L66.7268 294.39C68.759 294.428 70.3425 294.083 71.4771 293.356C72.6118 292.63 73.1921 291.565 73.218 290.161C73.2433 288.785 72.7252 287.718 71.6634 286.96C70.5926 286.202 69.0229 285.8 66.9544 285.752L65.9839 285.734Z M79.2389 257.421L78.6941 261.486L64.6519 267.66L77.6335 269.4L77.0887 273.465L57.3588 270.821L57.9037 266.756L71.9748 260.572L58.9661 258.829L59.5091 254.777L79.2389 257.421Z M78.6733 244.305L80.7336 235.843L83.935 236.623L80.9043 249.07L61.5632 244.36L62.5335 240.375L78.6733 244.305Z M87.6448 224.873L86.3577 228.767L67.4569 222.521L68.744 218.626L87.6448 224.873Z M97.1431 201.146L95.513 204.91L80.3208 207.031L92.3396 212.237L90.7094 216L72.4429 208.089L74.0731 204.325L89.2958 202.202L77.252 196.986L78.8767 193.235L97.1431 201.146Z M99.3993 178.892L95.525 185.748L100.167 188.371L104.714 180.324L107.583 181.945L101.018 193.563L83.6873 183.769L90.2385 172.176L93.1309 173.81L88.5975 181.833L92.7278 184.167L96.6021 177.311L99.3993 178.892Z" class="terminal__online"/>
<path d="M532.662 312.174C530.703 312.137 528.992 311.758 527.529 311.037C526.066 310.316 524.945 309.301 524.168 307.992C523.391 306.691 523.018 305.207 523.05 303.54C523.081 301.89 523.506 300.426 524.323 299.147C525.141 297.868 526.29 296.888 527.771 296.205C529.261 295.522 530.963 295.195 532.877 295.222L533.861 295.241C535.82 295.278 537.536 295.662 539.008 296.392C540.489 297.131 541.613 298.151 542.382 299.451C543.159 300.761 543.532 302.245 543.5 303.903C543.468 305.562 543.039 307.026 542.213 308.295C541.395 309.574 540.232 310.55 538.724 311.223C537.225 311.906 535.501 312.228 533.551 312.191L532.662 312.174ZM533.644 308.036C535.731 308.076 537.323 307.732 538.422 307.006C539.521 306.279 540.083 305.223 540.11 303.838C540.136 302.462 539.619 301.39 538.558 300.623C537.506 299.855 535.946 299.447 533.877 299.398L532.907 299.38C530.874 299.341 529.291 299.684 528.156 300.41C527.02 301.136 526.439 302.201 526.413 303.604C526.386 304.98 526.904 306.047 527.965 306.806C529.035 307.565 530.605 307.969 532.673 308.017L533.644 308.036Z M520.37 336.34L520.917 332.276L534.964 326.111L521.983 324.363L522.531 320.298L542.259 322.955L541.711 327.02L527.636 333.194L540.644 334.946L540.098 338.998L520.37 336.34Z M520.927 349.457L518.861 357.917L515.66 357.136L518.699 344.691L538.037 349.413L537.064 353.397L520.927 349.457Z M511.942 368.883L513.232 364.989L532.128 371.249L530.839 375.142L511.942 368.883Z M502.428 392.603L504.06 388.841L519.254 386.73L507.239 381.516L508.871 377.754L527.133 385.678L525.5 389.44L510.276 391.553L522.316 396.777L520.689 400.527L502.428 392.603Z M500.157 414.857L504.036 408.003L499.396 405.377L494.843 413.42L491.976 411.797L498.548 400.184L515.872 409.989L509.313 421.578L506.422 419.942L510.961 411.922L506.832 409.586L502.953 416.439L500.157 414.857Z" class="terminal__online"/>
<path d="M488.58 263.5H469V325.5H489.318C480.956 385.259 444.647 435.855 394.5 464V402.5H198.5V459.419C143.224 425.832 108.5 366.407 108.5 297C108.5 191.237 194.237 105.5 300 105.5C394.294 105.5 472.691 173.767 488.58 263.5Z" class="terminal__background"/>
<path d="M469 263.5H488.58C488.313 261.994 488.029 260.494 487.727 259H112.27C109.797 271.282 108.5 283.99 108.5 297C108.5 306.685 109.219 316.202 110.606 325.5H469V263.5Z M487.032 338.5C487.489 336.347 487.91 334.18 488.293 332H111.537C111.922 334.181 112.344 336.348 112.8 338.5H487.032Z M486.531 253.5C486.063 251.488 485.562 249.488 485.031 247.5H114.959C114.429 249.487 113.93 251.488 113.462 253.5H486.531Z" class="terminal__background-line"/>
<rect x="299.5" y="537" width="85" height="35" class="terminal__rectangle"/>
</svg>
