<svg width="0" height="0" viewBox="0 0 190 160" fill="none" xmlns="http://www.w3.org/2000/svg" class="caution__text">
<path d="M55.0038 8.43127H68.4511V11.9664H63.9394V22.7477H59.5155V11.9664H55.0038V8.43127ZM70.4628 8.43127H74.8866V19.2223H81.7909V22.7477H70.4628V8.43127ZM83.0312 18.0114L87.2402 17.7477C87.3313 18.4313 87.5168 18.9521 87.7968 19.3102C88.2525 19.8896 88.9036 20.1793 89.7499 20.1793C90.3814 20.1793 90.8665 20.0328 91.205 19.7399C91.55 19.4404 91.7226 19.0953 91.7226 18.7047C91.7226 18.3336 91.5598 18.0016 91.2343 17.7086C90.9088 17.4156 90.1536 17.139 88.9687 16.8785C87.0286 16.4423 85.6451 15.8629 84.8183 15.1403C83.9849 14.4176 83.5683 13.4964 83.5683 12.3766C83.5683 11.6409 83.7799 10.9476 84.203 10.2965C84.6327 9.63896 85.274 9.12463 86.1269 8.75354C86.9862 8.37594 88.1614 8.18713 89.6523 8.18713C91.4817 8.18713 92.8749 8.52893 93.8319 9.21252C94.7955 9.88961 95.3684 10.9703 95.5507 12.4547L91.3808 12.6989C91.2701 12.0543 91.0357 11.5856 90.6777 11.2926C90.3261 10.9996 89.8378 10.8531 89.2128 10.8531C88.6985 10.8531 88.3111 10.9638 88.0507 11.1852C87.7903 11.4 87.6601 11.6637 87.6601 11.9762C87.6601 12.2041 87.7675 12.4091 87.9823 12.5914C88.1907 12.7802 88.6855 12.956 89.4667 13.1188C91.4003 13.5354 92.7838 13.9586 93.6171 14.3883C94.4569 14.8115 95.0657 15.3388 95.4433 15.9703C95.8274 16.6018 96.0194 17.3082 96.0194 18.0895C96.0194 19.0074 95.7655 19.8538 95.2577 20.6285C94.7499 21.4033 94.0403 21.9925 93.1288 22.3961C92.2174 22.7933 91.0683 22.9918 89.6816 22.9918C87.2467 22.9918 85.5605 22.5231 84.623 21.5856C83.6855 20.6481 83.1549 19.4567 83.0312 18.0114ZM113.305 8.18713V22.7477H109.281V13.2067C108.63 13.7015 107.999 14.1018 107.387 14.4078C106.781 14.7138 106.019 15.0068 105.101 15.2867V12.025C106.456 11.5888 107.507 11.0647 108.256 10.4528C109.004 9.84078 109.59 9.08557 110.014 8.18713H113.305ZM118.021 18.7633H122.269V22.7477H118.021V18.7633ZM128.148 12.5719L124.389 11.8981C124.701 10.7002 125.3 9.78219 126.185 9.14417C127.077 8.50614 128.337 8.18713 129.965 8.18713C131.833 8.18713 133.184 8.53544 134.017 9.23206C134.851 9.92867 135.267 10.8043 135.267 11.859C135.267 12.4775 135.098 13.0374 134.76 13.5387C134.421 14.04 133.91 14.4795 133.226 14.8571C133.78 14.9938 134.203 15.1533 134.496 15.3356C134.971 15.6285 135.339 16.0159 135.6 16.4977C135.866 16.9729 136 17.5426 136 18.2067C136 19.04 135.782 19.8408 135.346 20.609C134.909 21.3707 134.281 21.9599 133.461 22.3766C132.641 22.7867 131.563 22.9918 130.228 22.9918C128.926 22.9918 127.898 22.8388 127.142 22.5328C126.394 22.2268 125.775 21.7809 125.287 21.1949C124.805 20.6025 124.434 19.8603 124.174 18.9684L128.148 18.441C128.305 19.2418 128.545 19.7985 128.871 20.111C129.203 20.417 129.623 20.5699 130.131 20.5699C130.665 20.5699 131.107 20.3746 131.459 19.984C131.817 19.5934 131.996 19.0726 131.996 18.4215C131.996 17.7574 131.823 17.2431 131.478 16.8785C131.14 16.514 130.678 16.3317 130.092 16.3317C129.779 16.3317 129.35 16.4098 128.803 16.566L129.008 13.7242C129.229 13.7568 129.402 13.7731 129.525 13.7731C130.046 13.7731 130.479 13.6071 130.824 13.275C131.176 12.943 131.351 12.5491 131.351 12.0934C131.351 11.6572 131.221 11.3089 130.961 11.0485C130.7 10.788 130.342 10.6578 129.887 10.6578C129.418 10.6578 129.037 10.8011 128.744 11.0875C128.451 11.3675 128.253 11.8623 128.148 12.5719Z"/>
</svg>
