<svg width="0" height="0" viewBox="0 0 879 645" fill="none" xmlns="http://www.w3.org/2000/svg" preserveAspectRatio="none" class="window__frame">
<path d="M799.438 302.355V245.666L811.151 225.629V151.836H805.294V132.776H811.151V81.463M3 62.4037V527.645L28.3767 555.012H355.834L383.163 579.935V642H490.526V611.701H767.717L799.438 579.935V331.677L858 302.355V69.7342L811.151 15H292.88V47.7428H784.798V54.5846H332.409L323.625 62.4037H3ZM249.935 15H283.12V47.7428H249.935V15ZM806.759 345.849V363.931H844.336V345.849H806.759ZM806.759 380.058V398.14H844.336V380.058H806.759ZM806.759 416.221V434.303H844.336V416.221H806.759ZM806.759 449.942V468.023H844.336V449.942H806.759ZM806.759 484.639V502.721H844.336V484.639H806.759Z" class="window__background"/>
</svg>
