<svg width="0" height="0" viewBox="0 0 934 617" fill="none" xmlns="http://www.w3.org/2000/svg" preserveAspectRatio="none" class="window__frame">
<path d="M53 45.5H73V597.5H30V473L8 450.5V88.5L53 45.5ZM30.5 115V103H51V115H30.5ZM30.5 147V135H51V147H30.5Z M80 45.5H405V3H819.5L848 27V45.5H931V574.5L915.5 606.5H841.5V574.5H828V614H325.5V597.5H80V45.5ZM890.5 471V458H905V471H890.5ZM859.5 471V458H874V471H859.5ZM859.5 501V488H874V501H859.5ZM890.5 501V488H905V501H890.5ZM890.5 531V518H905V531H890.5Z" class="window__background"/>
</svg>
