<svg width="0" height="0" viewBox="0 0 588 626" fill="none" xmlns="http://www.w3.org/2000/svg" preserveAspectRatio="none" class="window__frame">
<path d="M567.5 577V560.5H583.5V577H567.5Z M503 620V606H466V620H503Z M415 620V606H454V620H415Z M405 620V606H349.5V620H405Z M250.5 620V606H337V620H250.5Z M459 3H148V23.5H92.5L40.5 51V100.5V119V137.5V156V174.5V193V240L55 272V597L80 623.5H239V599.5H512.5L527 591H569.5V583.5H527.5V575.5H552.5V553.5H585.5V81.5L543 43V3H466.5V30.5H459V3Z" class="window__background"/>
</svg>
